<svg width="136" height="32" viewBox="0 0 136 32" fill="none" xmlns="http://www.w3.org/2000/svg">
<path d="M3.56114 1.05078H0V17.004H3.60686L3.56114 1.05078Z" fill="white"/>
<path d="M13.2022 17.0041L7.53824 8.45769L12.3794 1.00488H8.53938L3.69824 8.72879L8.99653 17.0041H13.2022Z" fill="white"/>
<path d="M20.5984 1.00488H17.083V17.0041L20.6442 16.9581L20.5984 1.00488Z" fill="white"/>
<path d="M38.1847 1.00488H34.9847V6.946C34.9801 7.55989 35.0106 8.17355 35.0761 8.78393L35.1675 10.3829H35.0761C35.0304 10.2956 34.8018 9.6983 34.7104 9.56045C34.5459 9.18692 34.3628 8.82194 34.1618 8.46688L30.011 1.00488H26.6738L26.7195 16.9581H29.9195V9.46396C29.9195 9.05043 29.8281 7.03789 29.7824 6.583H29.8738C30.2043 7.49433 30.6 8.38038 31.0578 9.23422L35.3093 16.9581H38.1847V1.00488Z" fill="white"/>
<path d="M55.1311 13.9394H47.4145V10.1946H52.3471V7.26768H47.3642V3.88589H54.6282L54.5825 0.958984H43.8945V16.9582L55.1311 16.9122V13.9394Z" fill="white"/>
<path d="M58.7842 3.83999H62.8528V16.9123H66.5053V3.83999H70.4779V0.913086L58.7842 0.959034V3.83999Z" fill="white"/>
<path d="M78.4646 0.913652L74.9492 0.917969L74.9686 16.8712L78.484 16.8669L78.4646 0.913652Z" fill="white"/>
<path d="M95.0537 11.4261H91.4925C91.4468 13.117 91.0354 14.3071 89.5725 14.3071C87.6525 14.3071 87.6525 12.6162 87.6525 11.7478V5.71478C87.6183 5.40065 87.652 5.0828 87.7515 4.78301C87.8509 4.48322 88.0136 4.20858 88.2285 3.97793C88.5939 3.65182 89.0656 3.47196 89.5543 3.4725C91.2914 3.4725 91.3371 5.20935 91.3828 5.99047H94.8982C94.8525 4.70851 94.6697 2.74192 93.2525 1.60241C92.2372 0.866949 91.0059 0.494853 89.7554 0.545596C86.0571 0.545596 84.1143 2.60408 84.1143 6.26156V11.0632C84.1143 14.3071 84.9828 15.2215 85.6228 15.8602C86.6285 16.8205 87.9085 17.2754 89.7783 17.2754C90.464 17.2754 92.1097 17.1421 93.248 16.2277C94.15 15.5334 94.7549 14.5196 94.9394 13.3927C95.0457 12.743 95.084 12.0839 95.0537 11.4261V11.4261Z" fill="white"/>
<path d="M102.821 13.6684H107.754L108.531 16.8204H111.955L107.342 0.867188H103.095L98.6152 16.8664H101.998L102.821 13.6684ZM105.143 3.7022H105.235L107.018 10.9253H103.456L105.143 3.7022Z" fill="white"/>
<path d="M1.96571 25.8961H0V31.6074H0.548571V29.3698H1.96571C2.19915 29.3861 2.43338 29.3528 2.65313 29.272C2.87288 29.1912 3.07321 29.0647 3.24102 28.9008C3.40884 28.7369 3.54038 28.5392 3.62704 28.3208C3.71371 28.1023 3.75357 27.8679 3.744 27.6329C3.75003 27.3989 3.70776 27.1661 3.61986 26.9493C3.53196 26.7324 3.40033 26.5363 3.23327 26.3731C3.06621 26.2099 2.86733 26.0833 2.64918 26.0012C2.43102 25.9191 2.19831 25.8833 1.96571 25.8961V25.8961ZM1.92 28.8643H0.548571V26.3969H1.92C2.08749 26.3866 2.2553 26.4109 2.4131 26.4683C2.5709 26.5256 2.71535 26.6148 2.83757 26.7304C2.95978 26.846 3.05717 26.9855 3.12374 27.1403C3.19031 27.2951 3.22466 27.462 3.22466 27.6306C3.22466 27.7993 3.19031 27.9662 3.12374 28.121C3.05717 28.2758 2.95978 28.4153 2.83757 28.5309C2.71535 28.6464 2.5709 28.7356 2.4131 28.793C2.2553 28.8503 2.08749 28.8746 1.92 28.8643V28.8643Z" fill="#2D2D2D"/>
<path d="M6.53276 29.0026H8.72248V28.5018H6.53276V26.3973H9.17962V25.8965H5.93848V31.6079H9.36248V31.153H6.53276V29.0026Z" fill="#2D2D2D"/>
<path d="M14.1716 29.0945C14.5025 28.984 14.7886 28.7682 14.9866 28.4797C15.1845 28.1912 15.2836 27.8457 15.2688 27.4955C15.2799 27.1997 15.2033 26.9072 15.0486 26.6552C14.8939 26.4032 14.6683 26.2031 14.4002 26.0803C14.0752 25.922 13.7125 25.8583 13.3534 25.8965H11.6162V31.6079H12.1648V29.2324H13.6276L14.9031 31.6539H15.5431L14.3088 29.3243C14.2588 29.2503 14.213 29.1736 14.1716 29.0945V29.0945ZM13.5819 28.6856V28.727H12.2562V26.3974H13.3991C13.6452 26.3688 13.8945 26.4003 14.1259 26.4893C14.3104 26.5823 14.4644 26.7266 14.5697 26.9049C14.675 27.0833 14.7273 27.2882 14.7202 27.4955C14.7299 27.6516 14.7069 27.808 14.6529 27.9546C14.5988 28.1012 14.5149 28.2349 14.4064 28.347C14.2979 28.459 14.1673 28.5471 14.0229 28.6054C13.8786 28.6637 13.7237 28.691 13.5682 28.6856H13.5819Z" fill="#2D2D2D"/>
<path d="M17.7695 31.6079H18.3181V29.0485H20.4164V28.5477H18.3181V26.3973H20.7821V25.8965H17.7695V31.6079Z" fill="#2D2D2D"/>
<path d="M25.44 25.8047C25.0549 25.7946 24.6717 25.8633 24.3137 26.0064C23.9556 26.1495 23.6302 26.3642 23.3572 26.6374C23.0841 26.9106 22.869 27.2366 22.7249 27.5958C22.5808 27.955 22.5107 28.3398 22.5189 28.727C22.5033 29.1226 22.5674 29.5174 22.7073 29.8875C22.8472 30.2577 23.06 30.5956 23.333 30.8811C23.606 31.1665 23.9336 31.3937 24.296 31.5488C24.6585 31.7039 25.0484 31.7839 25.4423 31.7839C25.8363 31.7839 26.2261 31.7039 26.5886 31.5488C26.951 31.3937 27.2786 31.1665 27.5516 30.8811C27.8246 30.5956 28.0374 30.2577 28.1773 29.8875C28.3172 29.5174 28.3813 29.1226 28.3657 28.727C28.3733 28.3396 28.3026 27.9547 28.158 27.5955C28.0134 27.2363 27.7979 26.9103 27.5245 26.6371C27.251 26.364 26.9253 26.1494 26.5671 26.0064C26.2088 25.8633 25.8254 25.7947 25.44 25.8047ZM25.44 31.199C25.1236 31.1975 24.8107 31.1316 24.5203 31.0051C24.2299 30.8787 23.968 30.6944 23.7505 30.4633C23.533 30.2322 23.3644 29.9592 23.2548 29.6608C23.1453 29.3623 23.0971 29.0447 23.1132 28.727C23.1071 28.4164 23.1628 28.1078 23.2771 27.8192C23.3915 27.5307 23.562 27.268 23.7788 27.0466C23.9956 26.8253 24.2543 26.6498 24.5396 26.5304C24.8249 26.411 25.131 26.3502 25.44 26.3515C25.7507 26.345 26.0594 26.4023 26.3472 26.5198C26.6351 26.6374 26.8961 26.8126 27.1143 27.035C27.3325 27.2573 27.5033 27.522 27.6163 27.8129C27.7293 28.1038 27.7821 28.4149 27.7715 28.727C27.7876 29.0451 27.7392 29.3631 27.6294 29.6618C27.5196 29.9606 27.3505 30.2338 27.1326 30.4649C26.9146 30.6961 26.6522 30.8803 26.3612 31.0065C26.0703 31.1327 25.7569 31.1982 25.44 31.199V31.199Z" fill="#2D2D2D"/>
<path d="M33.2527 29.0945C33.5836 28.984 33.8697 28.7681 34.0676 28.4796C34.2656 28.1911 34.3646 27.8456 34.3498 27.4955C34.3609 27.1996 34.2843 26.9071 34.1297 26.6551C33.975 26.4031 33.7493 26.2031 33.4813 26.0803C33.1546 25.922 32.7905 25.8584 32.4298 25.8965H30.6973V31.6079H31.2413V29.2323H32.7041L33.9841 31.6538H34.6241L33.3716 29.3242C33.3278 29.2499 33.2882 29.1732 33.2527 29.0945V29.0945ZM32.6584 28.6855V28.7269H31.3327V26.3973H32.4573C32.7049 26.3693 32.9556 26.4008 33.1887 26.4892C33.3731 26.5823 33.5271 26.7265 33.6325 26.9049C33.7378 27.0832 33.79 27.2882 33.783 27.4955C33.7924 27.6492 33.7702 27.8032 33.7178 27.9479C33.6654 28.0926 33.5839 28.2249 33.4784 28.3366C33.3729 28.4482 33.2457 28.5368 33.1046 28.5969C32.9635 28.6569 32.8116 28.6871 32.6584 28.6855V28.6855Z" fill="#2D2D2D"/>
<path d="M41.248 25.8965L39.7394 29.2783C39.6353 29.5012 39.5438 29.7297 39.4651 29.9629C39.3865 29.7297 39.2949 29.5012 39.1909 29.2783L37.6823 25.8965H37.088L36.6309 31.6079H37.1794L37.5451 27.6333V26.8109C37.6378 27.0903 37.7446 27.3648 37.8651 27.6333L39.2366 30.6016H39.7394L41.1109 27.6333C41.248 27.3117 41.4309 26.8109 41.4309 26.8109C41.4058 27.0844 41.4058 27.3597 41.4309 27.6333L41.7509 31.6538H42.2949L41.8377 25.8965H41.248Z" fill="#2D2D2D"/>
<path d="M46.2718 25.8965L44.1689 31.6079H44.7632L45.4032 29.8251H47.7301L48.3701 31.663H48.9644L46.8661 25.9057L46.2718 25.8965ZM45.5861 29.3242L46.3632 27.2198C46.4547 26.9901 46.5918 26.4892 46.5918 26.4892C46.5918 26.4892 46.7289 26.9487 46.8204 27.2198L47.5518 29.3242H45.5861Z" fill="#2D2D2D"/>
<path d="M54.9485 30.0089C54.9485 30.3305 54.9942 30.7854 54.9942 30.7854C54.9942 30.7854 54.72 30.2845 54.5371 30.0089L51.616 25.8965H51.0674V31.6079H51.616V27.4725C51.616 27.1509 51.5702 26.696 51.5702 26.696C51.5702 26.696 51.8445 27.1968 52.0274 27.4725L54.9485 31.6079H55.4971V25.8965H54.9485V30.0089Z" fill="#2D2D2D"/>
<path d="M60.8 31.1526C60.4826 31.1558 60.1679 31.0931 59.8757 30.9685C59.5835 30.844 59.3199 30.6602 59.1016 30.4286C58.8832 30.197 58.7147 29.9227 58.6066 29.6227C58.4984 29.3228 58.453 29.0036 58.4731 28.6852C58.4578 28.3721 58.5072 28.0591 58.6182 27.7662C58.7292 27.4732 58.8993 27.2065 59.1179 26.9829C59.3365 26.7593 59.5988 26.5836 59.8883 26.4669C60.1778 26.3503 60.4883 26.2952 60.8 26.3051C61.4361 26.3083 62.0509 26.536 62.5371 26.9483L62.8571 26.5348C62.2826 26.048 61.5513 25.7883 60.8 25.8042C60.4215 25.7919 60.0445 25.8561 59.6911 25.9929C59.3378 26.1298 59.0154 26.3365 58.743 26.6009C58.4706 26.8652 58.2538 27.1819 58.1053 27.532C57.9569 27.8821 57.8799 28.2586 57.8789 28.6392C57.8613 29.0331 57.9242 29.4265 58.0638 29.795C58.2034 30.1635 58.4166 30.4994 58.6904 30.7818C58.9641 31.0643 59.2925 31.2873 59.6554 31.4373C60.0182 31.5872 60.4078 31.6607 60.8 31.6534C61.6161 31.6624 62.4034 31.3508 62.9943 30.785L62.6743 30.3761C62.1746 30.8713 61.5017 31.15 60.8 31.1526V31.1526Z" fill="#2D2D2D"/>
<path d="M65.8191 29.0026H68.0134V28.5018H65.8191V26.3973H68.4705V25.8965H65.2705V31.6079H68.6534V31.153H65.8191V29.0026Z" fill="#2D2D2D"/>
<path d="M76.4159 25.8965L74.3633 31.6538H74.9713L75.6067 29.8159H77.9381L78.5781 31.6538H79.1267L77.0239 25.8965H76.4159ZM75.7301 29.3242L76.5073 27.2198C76.5987 26.9901 76.7359 26.4892 76.7359 26.4892C76.7359 26.4892 76.873 26.9487 76.9644 27.2198L77.6959 29.3242H75.7301Z" fill="#2D2D2D"/>
<path d="M84.503 29.4157H85.4859V30.3668C85.2524 30.6213 84.9699 30.8254 84.6556 30.9668C84.3413 31.1081 84.0016 31.1839 83.6573 31.1893C83.3419 31.1902 83.0298 31.1255 82.7405 30.9993C82.4512 30.8731 82.1911 30.6881 81.9764 30.4559C81.7617 30.2237 81.5971 29.9494 81.4931 29.6502C81.389 29.3509 81.3476 29.0333 81.3716 28.7173C81.3545 28.4014 81.4025 28.0854 81.5126 27.789C81.6227 27.4926 81.7925 27.2223 82.0114 26.995C82.2303 26.7677 82.4935 26.5882 82.7846 26.4679C83.0757 26.3476 83.3883 26.289 83.703 26.2958C84.314 26.3183 84.9037 26.5266 85.3944 26.8931L85.7144 26.4796C85.1213 26.032 84.3989 25.7916 83.6573 25.795C82.8915 25.8109 82.1618 26.1248 81.6216 26.6705C81.0814 27.2163 80.7729 27.9514 80.7611 28.7212C80.7493 29.491 81.035 30.2353 81.5581 30.7976C82.0812 31.3599 82.801 31.6964 83.5659 31.7361C83.9145 31.7423 84.2607 31.6765 84.5831 31.543C84.9054 31.4094 85.1971 31.2109 85.4402 30.9595V31.6074H86.0344V28.8505H84.5259L84.503 29.4157Z" fill="#2D2D2D"/>
<path d="M88.9783 29.0026H91.1725V28.5018H88.9783V26.3973H91.6297V25.8965H88.4297V31.6079H91.8125V31.153H88.9783V29.0026Z" fill="#2D2D2D"/>
<path d="M97.9336 30.0089C97.9336 30.3305 97.9793 30.7854 97.9793 30.7854C97.9793 30.7854 97.705 30.2845 97.5221 30.0089L94.5964 25.8965H94.0479V31.6079H94.5964V27.4725C94.5964 27.1509 94.5507 26.696 94.5507 26.696C94.5507 26.696 94.825 27.1968 95.0079 27.4725L97.9336 31.6079H98.4776V25.8965H97.9336V30.0089Z" fill="#2D2D2D"/>
<path d="M103.772 31.1526C103.454 31.1551 103.14 31.092 102.848 30.9672C102.556 30.8424 102.293 30.6585 102.075 30.4271C101.857 30.1957 101.688 29.9216 101.58 29.622C101.471 29.3223 101.425 29.0034 101.445 28.6852C101.434 28.3731 101.486 28.062 101.598 27.7708C101.711 27.4797 101.881 27.2146 102.099 26.9919C102.316 26.7691 102.577 26.5933 102.865 26.4752C103.152 26.3571 103.461 26.2992 103.772 26.3051C104.408 26.3083 105.023 26.536 105.509 26.9483L105.829 26.5348C105.254 26.048 104.523 25.7883 103.772 25.8042C103.393 25.7919 103.016 25.8561 102.663 25.9929C102.309 26.1298 101.987 26.3365 101.715 26.6009C101.442 26.8652 101.225 27.1819 101.077 27.532C100.929 27.8821 100.852 28.2586 100.851 28.6392C100.833 29.0331 100.896 29.4265 101.036 29.795C101.175 30.1635 101.388 30.4994 101.662 30.7818C101.936 31.0643 102.264 31.2873 102.627 31.4373C102.99 31.5872 103.379 31.6607 103.772 31.6534C104.588 31.6624 105.375 31.3508 105.966 30.785L105.646 30.3761C105.146 30.8713 104.473 31.15 103.772 31.1526V31.1526Z" fill="#2D2D2D"/>
<path d="M111.36 25.8506L110.126 27.9504C109.943 28.2721 109.76 28.6396 109.76 28.6396C109.76 28.6396 109.577 28.2721 109.394 27.9504L108.164 25.8506H107.524L109.486 29.1405H109.531V31.6079H110.08V29.1405L112 25.8506H111.36Z" fill="#2D2D2D"/>
<path d="M119.497 13.6154C119.371 13.427 119.56 13.1129 119.622 13.05C119.874 12.8616 119.999 12.6103 119.999 12.2962C119.999 11.2282 120.628 10.2231 121.57 9.7833C122.01 9.53202 122.449 9.40637 122.889 9.28073C122.512 8.9038 122.763 8.52687 123.078 8.27558C123.015 8.21276 122.889 8.08712 122.826 7.96147C122.638 7.83583 122.638 7.58454 122.826 7.39608C123.957 6.20247 125.088 5.07167 126.281 4.0037C126.658 3.62677 127.287 3.56395 127.664 3.94088C128.292 3.37549 128.92 2.74727 129.611 2.18187C131.182 0.736974 133.192 -0.456639 135.391 0.171579L135.642 0.234401L135.705 0.485687C136.396 2.74727 135.642 4.69474 134.009 6.32811L131.81 8.52687C131.935 8.65251 131.998 8.77816 131.998 8.9038C132.061 9.34355 131.935 9.7833 131.621 10.0974C130.553 11.2282 129.423 12.2962 128.292 13.3641C128.103 13.5526 127.852 13.4898 127.664 13.3641C127.601 13.2385 127.475 13.1757 127.412 13.05C127.161 13.3013 126.784 13.3641 126.533 13.1129C126.47 13.05 126.47 13.05 126.407 12.9872C126.03 14.4949 124.648 15.5629 123.14 15.5629C122.889 15.5629 122.638 15.6885 122.512 15.9398C122.387 16.3168 122.072 16.6309 121.695 16.8193C121.319 16.8822 120.942 16.8193 120.628 16.6309C120.313 17.1334 119.936 17.5104 119.434 17.8245C119.057 18.0758 118.429 17.7617 118.869 17.1334C118.931 17.0078 118.869 16.8822 118.869 16.8193C118.743 16.5681 118.617 16.3168 118.492 16.0655V16.0027V15.9398C118.115 14.9975 118.743 14.1808 119.497 13.6154Z" fill="#2B2A29"/>
<path d="M126.031 11.7937C126.282 13.3643 125.214 14.8092 123.644 15.0604C123.455 15.0604 123.33 15.1233 123.141 15.1233C122.701 15.0604 122.262 15.3745 122.073 15.8143C121.885 16.3797 121.571 16.5682 121.068 16.3797C121.508 16.1912 121.759 15.8143 121.633 15.563C121.508 15.3117 121.068 15.3117 120.88 15.6258C120.691 15.9399 120.44 16.254 120.251 16.5682C120 16.9451 119.686 17.2592 119.246 17.5105C119.435 17.322 119.435 17.0079 119.309 16.7566C119.183 16.4425 118.995 16.1912 118.869 15.8771C118.43 14.9348 119.56 13.804 120.503 13.6784C120.754 13.6784 121.005 13.4271 121.005 13.1758C121.005 13.1758 121.005 13.1758 121.005 13.113C120.628 13.113 120.189 13.2386 119.874 13.4899C120.189 13.2386 120.44 12.7989 120.44 12.3591C120.44 11.4796 120.942 10.6629 121.759 10.286C122.199 10.0347 122.701 9.84623 123.267 9.72059C123.518 9.72059 123.581 9.65777 123.581 9.53212C123.581 9.40648 123.644 9.34366 123.895 9.40648C124.775 10.0975 125.466 10.9142 126.031 11.7937Z" fill="#089ED3"/>
<path d="M125.905 11.7303C125.967 12.2329 125.779 12.7983 125.465 13.238C125.025 13.8662 124.271 14.306 123.517 14.2432C123.015 14.2432 122.512 14.5573 122.324 14.997C122.261 15.3111 122.072 15.6252 121.821 15.9393C122.135 15.4368 122.072 14.997 121.57 14.9342C121.13 14.9342 120.753 15.1855 120.565 15.5624C120.439 16.065 120.125 16.4419 119.685 16.6932C119.874 16.5676 119.874 16.4419 119.622 16.1278C118.806 15.2483 119.371 14.2432 120.376 13.929C121.004 13.8034 121.444 13.3008 121.507 12.6726C121.193 12.6098 120.942 12.6726 120.69 12.8611C120.816 12.7354 120.942 12.6098 120.942 12.4213C120.942 12.2329 120.942 11.9816 120.879 11.7931C120.879 11.3534 121.067 11.0392 121.57 10.6623C122.701 9.97128 123.454 9.59435 123.894 9.65717C124.774 10.1597 125.465 10.8508 125.905 11.7303Z" fill="#13539E"/>
<path d="M124.46 9.84547C123.266 10.4109 122.45 10.4109 122.135 11.2275C122.701 11.416 123.015 11.9814 122.638 12.4212C122.324 12.7353 122.073 13.175 122.01 13.6148C122.387 13.6148 122.764 13.4891 123.078 13.2378C123.455 12.9237 123.957 12.9237 124.585 12.5468C125.402 11.9814 125.716 11.416 125.465 10.725C125.214 10.0339 124.962 9.71983 124.46 9.84547Z" fill="#2F85C1"/>
<mask id="mask0_6886_2534" style="mask-type:luminance" maskUnits="userSpaceOnUse" x="122" y="9" width="4" height="5">
<path d="M124.459 9.84547C123.265 10.4109 122.449 10.4109 122.134 11.2275C122.7 11.416 123.014 11.9814 122.637 12.4212C122.323 12.7353 122.072 13.175 122.009 13.6148C122.386 13.6148 122.763 13.4891 123.077 13.2378C123.454 12.9237 123.956 12.9237 124.584 12.5468C125.401 11.9814 125.715 11.416 125.464 10.725C125.213 10.0339 124.961 9.71983 124.459 9.84547Z" fill="white"/>
</mask>
<g mask="url(#mask0_6886_2534)">
<path d="M122.323 10.6621C123.265 9.78259 124.459 9.5313 125.087 10.1595C125.715 10.7877 125.464 12.0442 124.522 12.9237C123.579 13.8032 122.386 14.0545 121.757 13.4262C121.129 12.798 121.443 11.5416 122.323 10.6621Z" fill="#2F85C1" fill-opacity="0.02"/>
<path d="M122.385 10.6619C123.265 9.78239 124.521 9.59392 125.087 10.1593C125.652 10.7247 125.464 11.9811 124.521 12.8607C123.579 13.7402 122.385 13.9286 121.757 13.3004C121.129 12.6722 121.506 11.5414 122.385 10.6619Z" fill="#2783C1" fill-opacity="0.04"/>
<path d="M122.448 10.6622C123.328 9.78271 124.521 9.59424 125.15 10.2225C125.778 10.8507 125.526 12.0443 124.647 12.861C123.767 13.6777 122.574 13.9289 121.946 13.3007C121.317 12.6725 121.569 11.5417 122.448 10.6622Z" fill="#2F85C2" fill-opacity="0.06"/>
<path d="M122.449 10.6622C123.329 9.78271 124.522 9.59424 125.088 10.2225C125.653 10.8507 125.465 11.9815 124.585 12.7981C123.706 13.6148 122.512 13.8661 121.947 13.2379C121.381 12.6097 121.632 11.5417 122.449 10.6622Z" fill="#3886C3" fill-opacity="0.08"/>
<path d="M122.512 10.6622C123.391 9.84552 124.522 9.65706 125.087 10.2225C125.653 10.7878 125.401 11.9815 124.585 12.7981C123.768 13.6148 122.574 13.8033 122.009 13.2379C121.444 12.6725 121.632 11.4789 122.512 10.6622Z" fill="#3C88C5" fill-opacity="0.1"/>
<path d="M122.574 10.6622C123.391 9.84552 124.522 9.65706 125.087 10.2225C125.652 10.7878 125.401 11.9186 124.584 12.7353C123.768 13.552 122.637 13.7405 122.072 13.1751C121.506 12.6097 121.757 11.4789 122.574 10.6622Z" fill="#448BC5" fill-opacity="0.12"/>
<path d="M122.637 10.6622C123.454 9.84552 124.585 9.65706 125.087 10.2225C125.59 10.7878 125.402 11.8558 124.585 12.6725C123.768 13.4892 122.637 13.6776 122.135 13.1123C121.632 12.5469 121.758 11.4789 122.637 10.6622Z" fill="#4A8DC7" fill-opacity="0.14"/>
<path d="M122.636 10.6622C123.453 9.84551 124.521 9.71987 125.023 10.2224C125.526 10.7878 125.338 11.8558 124.521 12.6097C123.704 13.3635 122.636 13.552 122.134 13.0494C121.631 12.5468 121.82 11.4789 122.636 10.6622Z" fill="#4E8FC8" fill-opacity="0.15"/>
<path d="M122.7 10.6617C123.454 9.90787 124.522 9.71941 125.087 10.2848C125.653 10.8502 125.401 11.8553 124.585 12.6092C123.768 13.3631 122.763 13.5515 122.198 12.9861C121.632 12.4207 121.946 11.4156 122.7 10.6617Z" fill="#5391C9" fill-opacity="0.17"/>
<path d="M122.763 10.6617C123.517 9.90787 124.585 9.71941 125.087 10.2848C125.59 10.7874 125.401 11.8553 124.647 12.6092C123.894 13.3631 122.826 13.5515 122.323 12.9861C121.82 12.4207 121.946 11.4156 122.763 10.6617Z" fill="#5894CA" fill-opacity="0.19"/>
<path d="M122.762 10.6619C123.516 9.97081 124.521 9.78235 125.024 10.2849C125.526 10.7875 125.338 11.7926 124.584 12.5465C123.83 13.3004 122.825 13.426 122.322 12.9234C121.82 12.4209 122.008 11.4157 122.762 10.6619Z" fill="#5D96CB" fill-opacity="0.21"/>
<path d="M122.825 10.6619C123.579 9.97081 124.521 9.78235 125.023 10.2849C125.526 10.7875 125.338 11.7926 124.584 12.4837C123.83 13.1747 122.888 13.3632 122.385 12.8606C121.882 12.358 122.071 11.4157 122.825 10.6619Z" fill="#6397CD" fill-opacity="0.23"/>
<path d="M122.888 10.6619C123.579 9.97081 124.584 9.78235 125.024 10.2849C125.527 10.7875 125.275 11.7298 124.584 12.4209C123.893 13.1119 122.951 13.3004 122.448 12.7978C121.946 12.2952 122.134 11.3529 122.888 10.6619Z" fill="#679ACF" fill-opacity="0.25"/>
<path d="M122.889 10.6618C123.58 9.97073 124.522 9.84509 124.962 10.2848C125.402 10.7246 125.213 11.6669 124.585 12.358C123.957 13.049 122.951 13.1746 122.449 12.7349C121.946 12.2951 122.198 11.3528 122.889 10.6618Z" fill="#6D9DD1" fill-opacity="0.27"/>
<path d="M122.951 10.6615C123.642 10.0333 124.521 9.84483 125.024 10.2846C125.464 10.7243 125.275 11.6667 124.647 12.2949C124.019 12.9231 123.077 13.1116 122.574 12.6718C122.071 12.2321 122.26 11.3526 122.951 10.6615Z" fill="#719FD2" fill-opacity="0.29"/>
<path d="M123.013 10.6623C123.704 10.034 124.584 9.84557 125.024 10.3481C125.463 10.8507 125.275 11.6674 124.647 12.2956C124.018 12.9238 123.076 13.1123 122.636 12.6097C122.197 12.1072 122.322 11.2905 123.013 10.6623Z" fill="#76A2D2" fill-opacity="0.31"/>
<path d="M123.013 10.6623C123.641 10.0341 124.521 9.90848 124.961 10.3482C125.4 10.788 125.212 11.6675 124.584 12.2957C123.955 12.9239 123.076 13.0496 122.636 12.6098C122.196 12.1701 122.385 11.2906 123.013 10.6623Z" fill="#7AA4D4" fill-opacity="0.33"/>
<path d="M123.077 10.6623C123.705 10.0341 124.521 9.90848 124.961 10.3482C125.401 10.788 125.212 11.6047 124.584 12.2329C123.956 12.8611 123.139 12.9867 122.7 12.547C122.26 12.1072 122.448 11.2906 123.077 10.6623Z" fill="#7EA6D5" fill-opacity="0.35"/>
<path d="M123.139 10.6616C123.767 10.0962 124.584 9.90771 124.961 10.3475C125.338 10.7872 125.212 11.6039 124.584 12.1693C123.955 12.7347 123.139 12.8603 122.762 12.4834C122.385 12.1065 122.511 11.2898 123.139 10.6616Z" fill="#82A9D6" fill-opacity="0.36"/>
<path d="M123.139 10.6624C123.705 10.097 124.522 9.97134 124.898 10.3483C125.275 10.7252 125.15 11.5419 124.522 12.1073C123.893 12.6727 123.139 12.7983 122.763 12.4214C122.386 12.0445 122.574 11.2278 123.139 10.6624Z" fill="#85ABD8" fill-opacity="0.38"/>
<path d="M123.203 10.6624C123.768 10.097 124.522 9.97134 124.962 10.3483C125.401 10.7252 125.213 11.4791 124.648 12.0445C124.082 12.6099 123.328 12.7355 122.951 12.3586C122.575 11.9816 122.637 11.2278 123.203 10.6624Z" fill="#8AADD9" fill-opacity="0.4"/>
<path d="M123.265 10.6624C123.83 10.097 124.584 9.97134 124.961 10.3483C125.338 10.7252 125.212 11.4791 124.647 11.9816C124.082 12.4842 123.328 12.6727 122.951 12.2957C122.574 11.9188 122.7 11.2278 123.265 10.6624Z" fill="#8FB0DA" fill-opacity="0.42"/>
<path d="M123.265 10.6619C123.83 10.1593 124.521 10.0336 124.898 10.4106C125.275 10.7875 125.15 11.4785 124.584 11.9811C124.019 12.4837 123.328 12.6093 122.951 12.2952C122.574 11.9811 122.762 11.2273 123.265 10.6619Z" fill="#94B2DB" fill-opacity="0.44"/>
<path d="M123.329 10.6619C123.831 10.1593 124.522 10.0336 124.899 10.4106C125.276 10.7875 125.088 11.4785 124.585 11.9811C124.082 12.4837 123.391 12.6093 123.014 12.2324C122.637 11.8555 122.826 11.2273 123.329 10.6619Z" fill="#97B5DC" fill-opacity="0.46"/>
<path d="M123.391 10.6619C123.893 10.1593 124.584 10.0336 124.898 10.4106C125.212 10.7875 125.087 11.4157 124.584 11.9183C124.082 12.4209 123.391 12.5465 123.077 12.1696C122.762 11.7926 122.888 11.1644 123.391 10.6619Z" fill="#9BB7DD" fill-opacity="0.48"/>
<path d="M123.453 10.6621C123.956 10.2223 124.584 10.0967 124.898 10.4108C125.212 10.7249 125.086 11.416 124.584 11.8557C124.081 12.2955 123.453 12.4211 123.139 12.107C122.825 11.7929 122.951 11.1647 123.453 10.6621Z" fill="#9FBADE" fill-opacity="0.5"/>
<path d="M123.454 10.6621C123.894 10.2223 124.522 10.0967 124.836 10.4108C125.15 10.7249 125.024 11.3531 124.585 11.7929C124.145 12.2326 123.454 12.3583 123.203 12.0442C122.951 11.7301 123.014 11.1647 123.454 10.6621Z" fill="#A3BDE1" fill-opacity="0.52"/>
<path d="M123.516 10.6621C123.956 10.2223 124.584 10.0967 124.835 10.4108C125.087 10.8506 125.024 11.416 124.584 11.7301C124.144 12.1698 123.516 12.2955 123.202 11.9814C122.888 11.6672 123.076 11.1647 123.516 10.6621Z" fill="#A8BFE2" fill-opacity="0.54"/>
<path d="M123.579 10.7254C124.019 10.2857 124.584 10.2228 124.898 10.4741C125.212 10.7254 125.087 11.3536 124.647 11.7934C124.207 12.2331 123.642 12.296 123.328 12.0447C123.014 11.7934 123.139 11.1023 123.579 10.7254Z" fill="#ABC1E2" fill-opacity="0.56"/>
<path d="M123.579 10.7249C123.956 10.348 124.522 10.2223 124.836 10.5364C125.15 10.8505 125.024 11.3531 124.584 11.7929C124.145 12.2326 123.579 12.2954 123.328 11.9813C123.077 11.6672 123.202 11.1018 123.579 10.7249Z" fill="#B0C4E4" fill-opacity="0.58"/>
<path d="M123.643 10.7249C124.02 10.348 124.585 10.2223 124.836 10.5364C125.088 10.8505 125.025 11.3531 124.585 11.73C124.145 12.107 123.643 12.2326 123.391 11.9185C123.14 11.6044 123.266 11.1018 123.643 10.7249Z" fill="#B4C7E5" fill-opacity="0.6"/>
<path d="M123.705 10.725C124.082 10.348 124.585 10.2852 124.836 10.5365C125.087 10.9134 124.962 11.416 124.585 11.6673C124.208 12.0442 123.705 12.1071 123.454 11.8558C123.203 11.6045 123.328 11.1019 123.705 10.725Z" fill="#B7C9E7" fill-opacity="0.62"/>
<path d="M123.705 10.7245C124.082 10.4104 124.584 10.2847 124.773 10.536C124.961 10.7873 124.898 11.2899 124.584 11.604C124.27 11.9181 123.705 12.0437 123.516 11.7925C123.328 11.5412 123.391 11.0386 123.705 10.7245Z" fill="#BACBE7" fill-opacity="0.64"/>
<path d="M123.767 10.7245C124.144 10.4104 124.584 10.2847 124.773 10.536C124.961 10.7873 124.898 11.2271 124.584 11.5412C124.27 11.8553 123.767 11.9181 123.579 11.7296C123.328 11.4155 123.453 10.913 123.767 10.7245Z" fill="#BECDE9" fill-opacity="0.65"/>
<path d="M123.83 10.7251C124.144 10.411 124.584 10.3482 124.835 10.5367C125.086 10.7251 124.961 11.1649 124.647 11.479C124.395 11.7931 123.956 11.8559 123.641 11.6675C123.39 11.3534 123.516 10.9136 123.83 10.7251Z" fill="#C2D1E9" fill-opacity="0.67"/>
<path d="M123.83 10.7251C124.144 10.411 124.521 10.3482 124.772 10.5367C125.024 10.7251 124.898 11.1649 124.584 11.479C124.27 11.7931 123.893 11.8559 123.641 11.6675C123.39 11.479 123.516 10.9764 123.83 10.7251Z" fill="#C4D3EB" fill-opacity="0.69"/>
<path d="M123.893 10.725C124.207 10.4109 124.584 10.4109 124.773 10.5993C124.961 10.7878 124.898 11.1647 124.584 11.4788C124.396 11.7929 124.019 11.8558 123.705 11.6673C123.516 11.3532 123.579 10.9763 123.893 10.725Z" fill="#C9D6ED" fill-opacity="0.71"/>
<path d="M123.956 10.7245C124.207 10.4732 124.584 10.4104 124.772 10.5988C124.961 10.7873 124.898 11.1642 124.584 11.4155C124.27 11.6668 123.956 11.7296 123.767 11.5412C123.579 11.3527 123.642 10.9758 123.956 10.7245Z" fill="#CCD9EE" fill-opacity="0.73"/>
<path d="M123.956 10.7245C124.208 10.4732 124.584 10.4104 124.71 10.5988C124.836 10.7873 124.836 11.1014 124.584 11.3527C124.333 11.604 123.956 11.6668 123.831 11.4783C123.705 11.2899 123.705 10.9758 123.956 10.7245Z" fill="#D0DBEF" fill-opacity="0.75"/>
<path d="M124.019 10.7245C124.271 10.4732 124.585 10.4104 124.71 10.5988C124.836 10.7873 124.773 11.1014 124.585 11.2899C124.396 11.5412 124.082 11.5412 123.894 11.4155C123.705 11.2899 123.768 10.9129 124.019 10.7245Z" fill="#D4DEF0" fill-opacity="0.77"/>
<path d="M124.082 10.7248C124.333 10.4735 124.584 10.4735 124.773 10.5991C124.961 10.7248 124.836 11.0389 124.647 11.2902C124.459 11.5415 124.145 11.5415 123.956 11.4158C123.768 11.1645 123.831 10.8504 124.082 10.7248Z" fill="#D7E1F0" fill-opacity="0.79"/>
<path d="M124.082 10.7252C124.27 10.5367 124.584 10.4739 124.71 10.5995C124.835 10.7252 124.773 10.9765 124.584 11.2278C124.396 11.4791 124.082 11.4791 123.956 11.3534C123.83 11.2278 123.893 10.9137 124.082 10.7252Z" fill="#DBE2F2" fill-opacity="0.81"/>
<path d="M124.144 10.7245C124.333 10.536 124.584 10.4732 124.71 10.6616C124.835 10.8501 124.772 11.0386 124.584 11.227C124.395 11.4155 124.144 11.4783 124.018 11.2899C123.893 11.1014 123.956 10.9129 124.144 10.7245Z" fill="#DEE6F4" fill-opacity="0.83"/>
<path d="M124.207 10.7246C124.395 10.5361 124.584 10.5361 124.709 10.6618C124.835 10.7874 124.772 10.9759 124.647 11.1644C124.521 11.29 124.333 11.3528 124.144 11.2272C123.956 11.1015 124.018 10.9131 124.207 10.7246Z" fill="#E2E8F5" fill-opacity="0.85"/>
<path d="M124.27 10.7251C124.396 10.5994 124.647 10.5366 124.71 10.6622C124.773 10.7879 124.773 10.9763 124.647 11.102C124.521 11.2276 124.27 11.2905 124.207 11.1648C124.145 11.0392 124.082 10.8507 124.27 10.7251Z" fill="#E5EBF6" fill-opacity="0.87"/>
<path d="M124.27 10.7251C124.396 10.5994 124.584 10.5366 124.647 10.6622C124.71 10.7879 124.71 10.9135 124.584 11.0392C124.459 11.1648 124.27 11.2276 124.207 11.102C124.144 10.9763 124.144 10.8507 124.27 10.7251Z" fill="#E8EEF7" fill-opacity="0.89"/>
<path d="M124.333 10.7252C124.458 10.5995 124.584 10.5995 124.647 10.6624C124.71 10.7252 124.71 10.9136 124.584 10.9765C124.458 11.0393 124.333 11.1021 124.207 11.0393C124.207 10.9765 124.207 10.788 124.333 10.7252Z" fill="#ECF1FA" fill-opacity="0.91"/>
<path d="M124.396 10.7246C124.459 10.6618 124.647 10.5989 124.71 10.6618C124.773 10.7246 124.773 10.8502 124.647 10.9759C124.522 11.1015 124.396 11.1015 124.333 11.0387C124.27 10.9759 124.27 10.8502 124.396 10.7246Z" fill="#F1F3FA" fill-opacity="0.92"/>
<path d="M124.395 10.7249C124.458 10.6621 124.584 10.6621 124.647 10.6621C124.71 10.6621 124.647 10.8506 124.584 10.9134C124.521 10.9762 124.395 10.9762 124.333 10.9762C124.27 10.9762 124.333 10.7878 124.395 10.7249Z" fill="#F4F7FD" fill-opacity="0.94"/>
<path d="M124.458 10.7249C124.521 10.662 124.584 10.662 124.647 10.7249C124.71 10.7877 124.647 10.8505 124.584 10.9133C124.521 10.9761 124.458 10.9761 124.396 10.9133C124.396 10.8505 124.396 10.7877 124.458 10.7249Z" fill="#F8F9FD" fill-opacity="0.96"/>
<path d="M124.522 10.7249C124.585 10.662 124.647 10.662 124.647 10.7249C124.647 10.7877 124.647 10.8505 124.585 10.8505C124.522 10.9133 124.459 10.9133 124.459 10.8505C124.459 10.7877 124.459 10.7877 124.522 10.7249Z" fill="#FCFDFE" fill-opacity="0.98"/>
<path d="M124.636 10.8235C124.66 10.7993 124.661 10.7596 124.637 10.7347C124.613 10.7099 124.573 10.7093 124.548 10.7335C124.523 10.7577 124.523 10.7975 124.547 10.8224C124.571 10.8472 124.611 10.8477 124.636 10.8235Z" fill="white"/>
</g>
<path d="M123.832 8.46356C126.094 6.20198 128.167 4.19169 129.989 2.55832C131.873 0.799314 133.695 0.171096 135.328 0.610848C135.894 2.55832 135.391 4.38015 133.758 6.01352C131.685 8.08663 129.549 10.2226 127.476 12.2957C125.842 10.6623 124.649 9.34307 123.832 8.46356Z" fill="url(#paint0_linear_6886_2534)"/>
<path d="M129.799 4.38053C129.296 4.19207 127.726 6.0139 124.271 8.96652C124.396 9.15498 124.585 9.28063 124.71 9.40627C126.846 7.33315 128.542 5.63697 129.799 4.38053Z" fill="white"/>
<path d="M126.658 11.2281C126.658 11.1653 126.658 11.1653 126.658 11.1653H126.721C126.721 11.1653 126.721 11.1653 126.784 11.1653V11.2281C126.784 11.2281 126.784 11.2281 126.784 11.291H126.721C126.721 11.2281 126.658 11.2281 126.658 11.2281ZM126.407 10.914C126.407 10.8512 126.407 10.8512 126.407 10.8512C126.407 10.8512 126.407 10.8512 126.47 10.8512H126.532V10.914V10.9768L126.407 10.914ZM126.093 10.6627C126.093 10.5999 126.093 10.5999 126.093 10.6627V10.5371H126.155H126.218C126.218 10.5371 126.218 10.5371 126.218 10.5999V10.6627C126.218 10.6627 126.218 10.6627 126.155 10.6627C126.155 10.5999 126.093 10.5999 126.093 10.6627ZM125.841 10.3486V10.2858H125.904C125.904 10.2858 125.904 10.2858 125.967 10.2858V10.3486C125.967 10.3486 125.967 10.3486 125.967 10.4115H125.904L125.841 10.3486ZM125.59 10.0345C125.59 9.9717 125.59 9.9717 125.59 10.0345C125.653 9.9717 125.653 9.9717 125.716 9.9717V10.0345C125.716 10.0345 125.716 10.0345 125.716 10.0973C125.653 10.0973 125.653 10.0973 125.59 10.0345ZM125.276 9.72041V9.65759H125.339H125.402V9.72041V9.78323L125.276 9.72041ZM125.025 9.46913L125.15 9.4063V9.46913V9.53195L125.025 9.46913ZM124.773 9.15502C124.711 9.15502 124.711 9.0922 124.773 9.15502C124.836 9.0922 124.836 9.0922 124.899 9.0922C124.962 9.0922 124.899 9.0922 124.899 9.15502V9.21784C124.899 9.21784 124.899 9.21784 124.836 9.21784C124.836 9.21784 124.773 9.15502 124.773 9.15502ZM124.459 8.84091C124.459 8.77809 124.459 8.77809 124.459 8.77809H124.522H124.585V8.84091V8.90373H124.522L124.459 8.84091ZM124.271 8.33833C124.334 8.33833 124.334 8.33833 124.334 8.33833C124.334 8.33833 124.334 8.33834 124.334 8.40116V8.46398H124.271C124.271 8.46398 124.271 8.46398 124.208 8.46398L124.271 8.33833ZM124.585 8.08705H124.648V8.14987C124.648 8.14987 124.648 8.14987 124.648 8.21269H124.585C124.585 8.21269 124.585 8.21269 124.522 8.21269L124.585 8.08705ZM124.836 7.77294H124.899C124.899 7.77294 124.899 7.77294 124.899 7.83576V7.89858H124.836H124.773C124.836 7.83576 124.836 7.83576 124.836 7.77294ZM125.15 7.45883C125.213 7.45883 125.213 7.45883 125.15 7.45883C125.213 7.52165 125.213 7.52165 125.213 7.52165C125.213 7.52165 125.213 7.52165 125.15 7.52165H125.088L125.15 7.45883C125.088 7.52165 125.088 7.52165 125.15 7.45883ZM125.464 7.14472H125.527V7.20754V7.27037H125.464C125.464 7.27037 125.464 7.27037 125.402 7.27037V7.20754L125.464 7.14472ZM125.779 6.89344C125.779 6.95626 125.779 7.01908 125.716 7.01908H125.653C125.653 7.01908 125.653 7.01908 125.653 6.95626M125.653 6.95626C125.653 6.89344 125.653 6.89344 125.653 6.95626ZM126.03 6.57933C126.093 6.70497 126.093 6.64215 126.093 6.64215H126.03C126.03 6.64215 126.03 6.64215 125.967 6.64215L126.03 6.57933ZM126.281 6.32804H126.344V6.39086V6.45368H126.281H126.218L126.281 6.32804ZM126.595 6.01393H126.658C126.658 6.01393 126.658 6.01393 126.658 6.07675V6.13957H126.595H126.532C126.532 6.13957 126.532 6.07675 126.595 6.01393C126.532 6.07675 126.532 6.07675 126.595 6.01393ZM126.909 5.76264C126.972 5.76264 126.972 5.76264 126.972 5.76264V5.82547C126.972 5.82547 126.972 5.82547 126.972 5.88829C126.972 5.88829 126.972 5.88829 126.909 5.88829H126.847C126.847 5.82547 126.847 5.82547 126.909 5.76264C126.847 5.82547 126.847 5.76264 126.909 5.76264ZM127.161 5.44854H127.223C127.223 5.44854 127.223 5.44853 127.223 5.51136V5.57418C127.223 5.57418 127.223 5.57418 127.161 5.57418H127.098C127.161 5.57418 127.161 5.51136 127.161 5.44854ZM127.475 5.19725C127.538 5.19725 127.538 5.19725 127.538 5.19725V5.26007C127.538 5.26007 127.538 5.26007 127.538 5.32289C127.538 5.32289 127.538 5.32289 127.475 5.32289H127.412L127.475 5.19725ZM127.789 4.88314H127.852H127.914C127.914 4.88314 127.914 4.88314 127.914 4.94596C127.914 5.00878 127.914 5.00878 127.852 5.00878H127.789C127.726 5.00878 127.726 4.94596 127.789 4.88314ZM128.04 4.63185H128.103C128.103 4.63185 128.103 4.63185 128.103 4.69467V4.7575C128.103 4.7575 128.103 4.7575 128.04 4.7575H127.977C127.977 4.7575 127.914 4.7575 127.914 4.69467C127.914 4.63185 128.04 4.63185 128.04 4.63185ZM128.354 4.38057H128.417V4.44339C128.417 4.44339 128.417 4.44339 128.417 4.50621H128.354H128.291C128.291 4.44339 128.291 4.44339 128.354 4.38057C128.291 4.38057 128.291 4.31774 128.354 4.38057ZM128.668 4.06646H128.731V4.12928C128.731 4.12928 128.731 4.12928 128.731 4.1921H128.668C128.668 4.1921 128.668 4.1921 128.606 4.1921C128.606 4.1921 128.606 4.1921 128.668 4.06646C128.606 4.12928 128.606 4.06646 128.668 4.06646ZM128.982 3.81517C129.045 3.81517 129.045 3.81517 129.045 3.81517C129.045 3.81517 129.045 3.81517 129.045 3.87799V3.94081H128.982C128.982 3.94081 128.982 3.94081 128.92 3.94081C128.92 3.87799 128.92 3.87799 128.982 3.81517ZM129.234 3.56388H129.297V3.6267C129.297 3.6267 129.297 3.6267 129.297 3.68953H129.234C129.234 3.68953 129.234 3.68953 129.171 3.68953C129.234 3.6267 129.234 3.6267 129.234 3.56388C129.234 3.50106 129.234 3.50106 129.234 3.56388ZM129.548 3.24977C129.611 3.3126 129.611 3.24977 129.548 3.24977C129.611 3.3126 129.611 3.3126 129.611 3.37542H129.548H129.485V3.3126C129.485 3.3126 129.485 3.3126 129.485 3.24977C129.485 3.24977 129.548 3.24977 129.548 3.24977ZM129.862 2.99849C129.925 2.99849 129.925 2.99849 129.862 2.99849C129.925 3.06131 129.925 3.06131 129.925 3.12413H129.862H129.799C129.799 3.06131 129.799 2.99849 129.862 2.99849ZM130.176 2.68438C130.176 2.7472 130.176 2.7472 130.176 2.68438C130.239 2.7472 130.239 2.7472 130.239 2.81002H130.176C130.176 2.81002 130.176 2.81002 130.113 2.81002C130.113 2.81002 130.113 2.7472 130.176 2.68438C130.113 2.7472 130.113 2.68438 130.176 2.68438ZM130.49 2.43309H130.553V2.49591C130.553 2.49591 130.553 2.49591 130.553 2.55874H130.49H130.427C130.427 2.55874 130.427 2.55874 130.49 2.43309ZM130.804 2.18181C130.867 2.18181 130.867 2.18181 130.867 2.18181C130.867 2.18181 130.867 2.18181 130.867 2.24463C130.867 2.24463 130.867 2.24463 130.867 2.30745H130.804H130.741L130.804 2.18181ZM131.118 1.93052C131.181 1.93052 131.181 1.93052 131.181 1.93052V1.99334C131.181 1.99334 131.181 2.05616 131.118 2.05616H131.056H130.993C130.993 2.05616 131.056 2.05616 131.118 1.93052C131.056 1.99334 131.056 1.99334 131.118 1.93052ZM131.433 1.67923C131.495 1.74205 131.495 1.74205 131.433 1.67923C131.433 1.74205 131.433 1.74205 131.433 1.74205C131.433 1.74205 131.433 1.74205 131.37 1.74205C131.37 1.74205 131.37 1.74205 131.37 1.67923C131.433 1.74205 131.433 1.74205 131.433 1.67923ZM131.809 1.49077H131.872V1.55359H131.809V1.49077C131.747 1.55359 131.747 1.55359 131.809 1.49077C131.747 1.49077 131.747 1.49077 131.809 1.49077ZM132.186 1.3023H132.249V1.36512C132.249 1.36512 132.249 1.36512 132.186 1.42794H132.124C132.124 1.36512 132.124 1.36512 132.186 1.3023C132.124 1.3023 132.061 1.3023 132.186 1.3023C132.124 1.3023 132.124 1.3023 132.186 1.3023ZM132.563 1.11384C132.626 1.17666 132.563 1.17666 132.563 1.17666H132.5C132.5 1.17666 132.5 1.17666 132.438 1.17666C132.438 1.17666 132.438 1.17666 132.438 1.11384C132.438 1.11384 132.438 1.11384 132.438 1.05101L132.563 1.11384ZM132.94 0.92537H133.003V0.988192C133.003 0.988192 133.003 0.988192 132.94 1.05101H132.877C132.877 1.05101 132.877 1.05101 132.877 0.988192C132.877 1.05101 132.877 1.05101 132.94 0.92537C132.877 0.988192 132.877 0.988192 132.94 0.92537ZM133.317 0.862549H133.38V0.92537C133.38 0.92537 133.38 0.92537 133.317 0.988192H133.254C133.254 0.988192 133.254 0.988192 133.192 0.92537L133.317 0.862549C133.254 0.862549 133.254 0.862549 133.317 0.862549ZM133.757 0.736905C133.757 0.799727 133.757 0.799727 133.757 0.799727H133.694C133.694 0.799727 133.694 0.799727 133.694 0.736905H133.757ZM134.134 0.736905C134.197 0.799727 134.134 0.799727 134.134 0.736905C134.134 0.799727 134.071 0.799727 134.071 0.799727C134.071 0.799727 134.071 0.799727 134.008 0.736905C134.008 0.736905 134.008 0.736905 134.071 0.736905H134.134ZM134.574 0.736905C134.636 0.736905 134.636 0.736905 134.574 0.736905C134.636 0.799727 134.636 0.799727 134.636 0.799727H134.574C134.574 0.799727 134.511 0.799727 134.574 0.736905C134.511 0.736905 134.511 0.736905 134.574 0.736905C134.511 0.736905 134.511 0.674083 134.574 0.736905ZM135.013 0.736905C135.076 0.799727 135.076 0.799727 135.076 0.799727H135.013H134.951V0.736905H135.013ZM135.327 1.23948C135.265 1.3023 135.265 1.3023 135.265 1.3023C135.265 1.3023 135.265 1.3023 135.265 1.23948V1.17666C135.202 1.17666 135.202 1.17666 135.327 1.23948ZM135.327 1.61641C135.327 1.67923 135.327 1.67923 135.327 1.61641C135.265 1.61641 135.265 1.61641 135.327 1.61641L135.39 1.55359C135.39 1.61641 135.39 1.61641 135.327 1.61641ZM135.39 2.05616C135.327 2.05616 135.327 2.05616 135.327 2.05616V1.99334V1.93052H135.39H135.453C135.39 1.93052 135.453 1.93052 135.39 2.05616ZM135.39 2.43309C135.327 2.49591 135.327 2.49591 135.327 2.49591C135.265 2.49591 135.265 2.49591 135.202 2.43309C135.202 2.43309 135.202 2.43309 135.202 2.37027H135.265H135.327C135.265 2.37027 135.327 2.37027 135.39 2.43309ZM135.327 2.87284C135.265 2.87284 135.265 2.87284 135.265 2.87284C135.265 2.87284 135.265 2.87284 135.265 2.81002H135.327V2.87284ZM135.202 3.3126C135.139 3.3126 135.139 3.24977 135.202 3.3126C135.139 3.24977 135.202 3.24977 135.202 3.18695C135.202 3.18695 135.202 3.18695 135.265 3.18695C135.265 3.24977 135.265 3.24977 135.202 3.3126ZM135.139 3.68953C135.076 3.68953 135.076 3.68953 135.076 3.68953V3.6267C135.076 3.6267 135.076 3.6267 135.139 3.68953C135.139 3.6267 135.076 3.6267 135.139 3.68953C135.139 3.6267 135.139 3.6267 135.139 3.68953Z" fill="#9C3E33"/>
<path d="M134.95 4.06639H134.825C134.825 4.06639 134.825 4.06639 134.762 4.00357V3.94075L134.825 3.87793H134.888C134.888 3.87793 134.888 3.87793 134.95 3.87793C134.95 3.94075 134.95 4.06639 134.95 4.06639ZM134.762 4.44332H134.699C134.699 4.44332 134.636 4.44333 134.636 4.3805V4.31768C134.636 4.31768 134.636 4.31768 134.699 4.31768H134.762C134.762 4.3805 134.762 4.44332 134.762 4.44332ZM134.511 4.82026C134.448 4.75743 134.448 4.75743 134.448 4.69461C134.448 4.69461 134.448 4.69461 134.511 4.69461H134.573C134.573 4.69461 134.636 4.75743 134.573 4.75743C134.573 4.82026 134.573 4.82026 134.511 4.82026ZM134.259 5.13436H134.196C134.196 5.13436 134.197 5.13436 134.134 5.07154V5.00872H134.196C134.196 5.00872 134.196 5.00872 134.259 5.00872C134.259 5.07154 134.259 5.07154 134.259 5.13436C134.322 5.13436 134.259 5.07154 134.259 5.13436ZM134.008 5.44847H133.945V5.38565V5.32283C133.945 5.32283 133.945 5.32283 134.008 5.32283H134.071L134.008 5.44847C134.071 5.44847 134.071 5.38565 134.008 5.44847ZM133.757 5.76258H133.694C133.694 5.76258 133.694 5.76258 133.694 5.69976V5.63694H133.757H133.82C133.82 5.69976 133.82 5.69976 133.757 5.76258C133.82 5.76258 133.82 5.69976 133.757 5.76258ZM133.443 6.07669C133.38 6.07669 133.38 6.07669 133.38 6.07669C133.38 6.07669 133.38 6.07669 133.38 6.01387V5.95105H133.443H133.505C133.505 5.95105 133.505 5.95105 133.443 6.07669C133.505 6.01387 133.505 6.01387 133.443 6.07669ZM133.191 6.32798H133.129V6.26516C133.129 6.26516 133.129 6.26516 133.129 6.20233H133.191C133.191 6.20233 133.191 6.20233 133.254 6.20233M132.877 6.64209H132.814C132.814 6.64209 132.814 6.64209 132.814 6.57926C132.814 6.57926 132.814 6.57926 132.814 6.51644H132.877H132.94C132.94 6.51644 132.94 6.51644 132.877 6.64209ZM132.563 6.89337H132.5C132.5 6.89337 132.5 6.89337 132.5 6.83055V6.76773H132.563H132.626L132.563 6.89337C132.626 6.89337 132.626 6.89337 132.563 6.89337ZM132.312 7.20748C132.249 7.20748 132.249 7.20748 132.249 7.20748V7.14466C132.249 7.14466 132.249 7.14466 132.249 7.08184C132.249 7.08184 132.249 7.08184 132.312 7.08184H132.375C132.375 7.08184 132.375 7.14466 132.312 7.20748ZM131.998 7.45877H131.935H131.872V7.39595C131.872 7.39595 131.872 7.39595 131.872 7.33312H131.935C131.935 7.33312 131.935 7.33312 131.998 7.33312V7.45877ZM131.746 7.77288C131.684 7.77288 131.684 7.77288 131.746 7.77288C131.684 7.71005 131.684 7.71006 131.684 7.64723H131.746H131.809C131.809 7.71006 131.809 7.71005 131.746 7.77288ZM131.432 8.02416C131.37 8.08699 131.37 8.08699 131.432 8.02416C131.37 8.02416 131.37 8.02416 131.432 8.02416C131.432 7.96134 131.432 7.96134 131.432 8.02416C131.495 7.96134 131.432 7.96134 131.432 8.02416C131.495 8.02416 131.495 8.02416 131.432 8.02416C131.495 8.02416 131.432 8.08699 131.432 8.02416ZM131.181 8.33827H131.118H131.055V8.27545V8.21263H131.118H131.181C131.181 8.21263 131.181 8.21263 131.181 8.27545C131.181 8.27545 131.181 8.27545 131.181 8.33827ZM130.867 8.58956H130.804V8.52674C130.804 8.52674 130.804 8.52674 130.804 8.46392H130.867C130.867 8.46392 130.867 8.46392 130.93 8.46392L130.867 8.58956ZM130.616 8.90367H130.553V8.84085V8.77802H130.616C130.616 8.77802 130.616 8.77802 130.678 8.77802C130.616 8.84085 130.616 8.84085 130.616 8.90367ZM130.302 9.21778H130.239C130.239 9.21778 130.239 9.21778 130.239 9.15495V9.09213H130.302H130.364C130.302 9.09213 130.302 9.15495 130.302 9.21778C130.302 9.15495 130.302 9.15495 130.302 9.21778ZM129.987 9.46906C129.925 9.40624 129.987 9.34342 129.987 9.34342H130.05V9.40624C130.113 9.40624 130.05 9.46906 129.987 9.46906ZM129.736 9.78317H129.673C129.673 9.78317 129.673 9.78317 129.673 9.72035C129.673 9.72035 129.673 9.72035 129.673 9.65753H129.736C129.736 9.65753 129.736 9.65753 129.799 9.65753C129.736 9.65753 129.736 9.65753 129.736 9.78317ZM129.422 10.0345H129.359C129.359 10.0345 129.359 10.0345 129.359 9.97164V9.90882C129.359 9.90882 129.359 9.90882 129.422 9.90882H129.485C129.485 10.0345 129.485 10.0345 129.422 10.0345C129.485 10.0345 129.485 10.0345 129.422 10.0345ZM129.171 10.3486C129.108 10.3486 129.108 10.3486 129.108 10.3486C129.108 10.3486 129.108 10.3486 129.108 10.2857V10.2229C129.108 10.2229 129.108 10.2229 129.171 10.2229H129.234C129.234 10.2857 129.234 10.2857 129.171 10.3486ZM128.857 10.5999C128.794 10.537 128.794 10.537 128.794 10.537H128.857C128.857 10.537 128.857 10.537 128.919 10.537V10.5999H128.857ZM128.605 10.914H128.543C128.543 10.914 128.543 10.914 128.543 10.8511V10.7883H128.605C128.605 10.7883 128.605 10.7883 128.668 10.7883C128.605 10.8511 128.605 10.914 128.605 10.914ZM128.291 11.2281H128.228C128.228 11.2281 128.228 11.2281 128.228 11.1652V11.1024C128.228 11.1024 128.228 11.1024 128.291 11.1024H128.354C128.354 11.1652 128.354 11.1653 128.291 11.2281ZM127.977 11.5422C127.914 11.5422 127.914 11.5422 127.914 11.5422V11.4794C127.914 11.4794 127.914 11.4794 127.914 11.4165H127.977H128.04L127.977 11.5422ZM127.726 11.7935H127.663V11.7306C127.663 11.7306 127.663 11.7306 127.663 11.6678H127.726H127.789L127.726 11.7935ZM127.223 11.7935V11.7306C127.223 11.7306 127.223 11.7306 127.286 11.7306H127.349V11.7935V11.8563L127.223 11.7935ZM126.909 11.5422C126.909 11.4794 126.909 11.4794 126.909 11.5422C126.909 11.4794 126.909 11.4794 126.909 11.4794C126.909 11.4794 126.909 11.4794 126.972 11.4794H127.035V11.5422C127.035 11.5422 127.035 11.5422 127.035 11.605C127.035 11.5422 126.972 11.5422 126.909 11.5422Z" fill="#9C3E33"/>
<path d="M127.412 12.2963C128.606 11.1027 129.862 9.84628 131.119 8.58984C131.747 8.84113 131.81 9.21806 131.307 9.78346C130.553 10.5373 129.485 11.6681 128.04 13.0502C127.726 12.6733 127.538 12.422 127.412 12.2963Z" fill="url(#paint1_linear_6886_2534)"/>
<path d="M127.727 4.69506C127.413 4.19249 127.036 4.06684 126.659 4.44377C125.529 5.44892 124.398 6.51689 123.204 7.77333C123.455 8.02461 123.644 8.2759 123.895 8.52719C125.591 6.831 126.848 5.51174 127.727 4.69506Z" fill="url(#paint2_linear_6886_2534)"/>
<path d="M127.413 12.1706L123.895 8.46411C123.832 8.40129 123.707 8.40129 123.644 8.46411L123.204 8.84104L127.036 12.7988L127.413 12.3591C127.476 12.3591 127.476 12.2962 127.413 12.1706Z" fill="url(#paint3_linear_6886_2534)"/>
<defs>
<linearGradient id="paint0_linear_6886_2534" x1="138.725" y1="13.9755" x2="142.666" y2="17.9964" gradientUnits="userSpaceOnUse">
<stop stop-color="#F0900D"/>
<stop offset="0.29" stop-color="#FCC10C"/>
<stop offset="0.73" stop-color="#E85414"/>
<stop offset="1" stop-color="#F0900D"/>
</linearGradient>
<linearGradient id="paint1_linear_6886_2534" x1="139.607" y1="20.7747" x2="140.191" y2="21.3597" gradientUnits="userSpaceOnUse">
<stop stop-color="#E85414"/>
<stop offset="0.32" stop-color="#ED7A10"/>
<stop offset="1" stop-color="#D41B26"/>
</linearGradient>
<linearGradient id="paint2_linear_6886_2534" x1="134.847" y1="16.3846" x2="135.715" y2="17.323" gradientUnits="userSpaceOnUse">
<stop stop-color="#F6AC4E"/>
<stop offset="0.51" stop-color="#F6B45B"/>
<stop offset="1" stop-color="#E85414"/>
</linearGradient>
<linearGradient id="paint3_linear_6886_2534" x1="124.794" y1="11.202" x2="125.368" y2="10.6469" gradientUnits="userSpaceOnUse">
<stop stop-color="#626467"/>
<stop offset="0.25" stop-color="#1E1E1F"/>
<stop offset="1" stop-color="#626467"/>
</linearGradient>
</defs>
</svg>
