<svg width="18" height="18" viewBox="0 0 18 18" fill="none" xmlns="http://www.w3.org/2000/svg">
<path d="M1.11782 13.6154C0.992176 13.427 1.18064 13.1129 1.24346 13.05C1.49475 12.8616 1.62039 12.6103 1.62039 12.2962C1.62039 11.2282 2.24861 10.2231 3.19094 9.7833C3.63069 9.53202 4.07044 9.40637 4.51019 9.28073C4.13326 8.9038 4.38455 8.52687 4.69866 8.27558C4.63583 8.21276 4.51019 8.08712 4.44737 7.96147C4.25891 7.83583 4.25891 7.58454 4.44737 7.39608C5.57816 6.20247 6.70895 5.07167 7.90257 4.0037C8.2795 3.62677 8.90771 3.56395 9.28464 3.94088C9.91286 3.37549 10.5411 2.74727 11.2321 2.18187C12.8027 0.736974 14.813 -0.456639 17.0117 0.171579L17.263 0.234401L17.3258 0.485687C18.0169 2.74727 17.263 4.69474 15.6296 6.32811L13.4309 8.52687C13.5565 8.65251 13.6193 8.77816 13.6193 8.9038C13.6822 9.34355 13.5565 9.7833 13.2424 10.0974C12.1744 11.2282 11.0437 12.2962 9.91286 13.3641C9.7244 13.5526 9.47311 13.4898 9.28464 13.3641C9.22182 13.2385 9.09618 13.1757 9.03336 13.05C8.78207 13.3013 8.40514 13.3641 8.15385 13.1129C8.09103 13.05 8.09103 13.05 8.02821 12.9872C7.65128 14.4949 6.2692 15.5629 4.76148 15.5629C4.51019 15.5629 4.25891 15.6885 4.13326 15.9398C4.00762 16.3168 3.69351 16.6309 3.31658 16.8193C2.93965 16.8822 2.56272 16.8193 2.24861 16.6309C1.9345 17.1334 1.55757 17.5104 1.05499 17.8245C0.678063 18.0758 0.0498498 17.7617 0.489602 17.1334C0.552424 17.0078 0.489602 16.8822 0.489602 16.8193C0.363958 16.5681 0.238311 16.3168 0.112668 16.0655V16.0027V15.9398C-0.264263 14.9975 0.363958 14.1808 1.11782 13.6154Z" fill="#2B2A29"/>
<path d="M7.6521 11.7932C7.90339 13.3638 6.83543 14.8087 5.26488 15.0599C5.07642 15.0599 4.95077 15.1228 4.76231 15.1228C4.32256 15.0599 3.88281 15.3741 3.69434 15.8138C3.50588 16.3792 3.19176 16.5677 2.68919 16.3792C3.12894 16.1907 3.38023 15.8138 3.25458 15.5625C3.12894 15.3112 2.68919 15.3112 2.50072 15.6253C2.31226 15.9395 2.06097 16.2536 1.87251 16.5677C1.62122 16.9446 1.30712 17.2587 0.867364 17.51C1.05583 17.3215 1.05582 17.0074 0.93018 16.7561C0.804536 16.442 0.616073 16.1907 0.49043 15.8766C0.0506776 14.9343 1.18147 13.8035 2.1238 13.6779C2.37509 13.6779 2.62636 13.4266 2.62636 13.1753C2.62636 13.1753 2.62636 13.1753 2.62636 13.1125C2.24943 13.1125 1.80969 13.2381 1.49558 13.4894C1.80969 13.2381 2.06097 12.7984 2.06097 12.3586C2.06097 11.4791 2.56355 10.6624 3.38023 10.2855C3.81999 10.0342 4.32256 9.84575 4.88795 9.7201C5.13924 9.7201 5.20206 9.65728 5.20206 9.53164C5.20206 9.40599 5.26488 9.34317 5.51617 9.40599C6.39567 10.097 7.08671 10.9137 7.6521 11.7932Z" fill="#089ED3"/>
<path d="M7.52463 11.7308C7.58745 12.2333 7.39899 12.7987 7.08488 13.2385C6.64512 13.8667 5.89126 14.3065 5.1374 14.2436C4.63483 14.2436 4.13226 14.5578 3.94379 14.9975C3.88097 15.3116 3.6925 15.6257 3.44121 15.9398C3.75532 15.4373 3.69251 14.9975 3.18993 14.9347C2.75018 14.9347 2.37324 15.186 2.18478 15.5629C2.05914 16.0655 1.74503 16.4424 1.30528 16.6937C1.49374 16.568 1.49374 16.4424 1.24245 16.1283C0.425771 15.2488 0.991165 14.2436 1.99631 13.9295C2.62453 13.8039 3.06428 13.3013 3.12711 12.6731C2.813 12.6103 2.56171 12.6731 2.31042 12.8616C2.43606 12.7359 2.56171 12.6103 2.56171 12.4218C2.56171 12.2333 2.56171 11.9821 2.49889 11.7936C2.49889 11.3538 2.68736 11.0397 3.18993 10.6628C4.32072 9.97177 5.07458 9.59483 5.51433 9.65766C6.39384 10.1602 7.08487 10.8513 7.52463 11.7308Z" fill="#13539E"/>
<path d="M6.0809 9.84596C4.88729 10.4114 4.07061 10.4114 3.7565 11.228C4.3219 11.4165 4.63601 11.9819 4.25908 12.4216C3.94497 12.7358 3.69368 13.1755 3.63086 13.6153C4.00779 13.6153 4.38472 13.4896 4.69883 13.2383C5.07576 12.9242 5.57834 12.9242 6.20655 12.5473C7.02324 11.9819 7.33734 11.4165 7.08605 10.7255C6.83477 10.0344 6.58348 9.72031 6.0809 9.84596Z" fill="#2F85C1"/>
<mask id="mask0_6905_2224" style="mask-type:luminance" maskUnits="userSpaceOnUse" x="3" y="9" width="5" height="5">
<path d="M6.07895 9.84547C4.88534 10.4109 4.06866 10.4109 3.75455 11.2275C4.31994 11.416 4.63405 11.9814 4.25712 12.4212C3.94301 12.7353 3.69173 13.175 3.62891 13.6148C4.00584 13.6148 4.38277 13.4891 4.69687 13.2378C5.0738 12.9237 5.57638 12.9237 6.2046 12.5468C7.02128 11.9814 7.33539 11.416 7.0841 10.725C6.83281 10.0339 6.58152 9.71983 6.07895 9.84547Z" fill="white"/>
</mask>
<g mask="url(#mask0_6905_2224)">
<path d="M3.94391 10.6621C4.88623 9.78259 6.07984 9.5313 6.70806 10.1595C7.33628 10.7877 7.08499 12.0442 6.14267 12.9237C5.20034 13.8032 4.00673 14.0545 3.37852 13.4262C2.7503 12.798 3.0644 11.5416 3.94391 10.6621Z" fill="#2F85C1" fill-opacity="0.02"/>
<path d="M4.00658 10.6619C4.88608 9.78239 6.14251 9.59392 6.70791 10.1593C7.2733 10.7247 7.08484 11.9811 6.14252 12.8607C5.20019 13.7402 4.00658 13.9286 3.37836 13.3004C2.75015 12.6722 3.12708 11.5414 4.00658 10.6619Z" fill="#2783C1" fill-opacity="0.04"/>
<path d="M4.07029 10.6622C4.9498 9.78271 6.14341 9.59424 6.77163 10.2225C7.39985 10.8507 7.14856 12.0443 6.26906 12.861C5.38955 13.6777 4.19594 13.9289 3.56772 13.3007C2.9395 12.6725 3.19079 11.5417 4.07029 10.6622Z" fill="#2F85C2" fill-opacity="0.06"/>
<path d="M4.06922 10.6622C4.94873 9.78271 6.14234 9.59424 6.70773 10.2225C7.27313 10.8507 7.08467 11.9815 6.20517 12.7981C5.32566 13.6148 4.13204 13.8661 3.56665 13.2379C3.00125 12.6097 3.25254 11.5417 4.06922 10.6622Z" fill="#3886C3" fill-opacity="0.08"/>
<path d="M4.1326 10.6617C5.0121 9.84503 6.14289 9.65657 6.70828 10.222C7.27368 10.7874 7.0224 11.981 6.20572 12.7977C5.38903 13.6143 4.19542 13.8028 3.63002 13.2374C3.06463 12.672 3.25309 11.4784 4.1326 10.6617Z" fill="#3C88C5" fill-opacity="0.1"/>
<path d="M4.19421 10.6617C5.0109 9.84503 6.14169 9.65657 6.70708 10.222C7.27248 10.7874 7.0212 11.9182 6.20452 12.7348C5.38784 13.5515 4.25704 13.74 3.69165 13.1746C3.12625 12.6092 3.37753 11.4784 4.19421 10.6617Z" fill="#448BC5" fill-opacity="0.12"/>
<path d="M4.25746 10.6617C5.07415 9.84503 6.20493 9.65657 6.70751 10.222C7.21008 10.7874 7.02162 11.8553 6.20494 12.672C5.38826 13.4887 4.25746 13.6772 3.75489 13.1118C3.25231 12.5464 3.37796 11.4784 4.25746 10.6617Z" fill="#4A8DC7" fill-opacity="0.14"/>
<path d="M4.25832 10.6622C5.075 9.84551 6.14297 9.71987 6.64555 10.2224C7.14812 10.7878 6.95965 11.8558 6.14297 12.6097C5.32629 13.3635 4.25832 13.552 3.75574 13.0494C3.25317 12.5468 3.44164 11.4789 4.25832 10.6622Z" fill="#4E8FC8" fill-opacity="0.15"/>
<path d="M4.32119 10.6622C5.07505 9.90836 6.14301 9.71989 6.70841 10.2853C7.2738 10.8507 7.02252 11.8558 6.20584 12.6097C5.38916 13.3636 4.38401 13.552 3.81861 12.9866C3.25322 12.4212 3.56733 11.4161 4.32119 10.6622Z" fill="#5391C9" fill-opacity="0.17"/>
<path d="M4.38387 10.6622C5.13774 9.90836 6.2057 9.71989 6.70828 10.2853C7.21085 10.7879 7.02239 11.8558 6.26853 12.6097C5.51467 13.3636 4.4467 13.552 3.94412 12.9866C3.44155 12.4212 3.56719 11.4161 4.38387 10.6622Z" fill="#5894CA" fill-opacity="0.19"/>
<path d="M4.38431 10.6619C5.13817 9.97081 6.14332 9.78235 6.64589 10.2849C7.14847 10.7875 6.96 11.7926 6.20614 12.5465C5.45228 13.3004 4.44713 13.426 3.94456 12.9234C3.44198 12.4209 3.63045 11.4157 4.38431 10.6619Z" fill="#5D96CB" fill-opacity="0.21"/>
<path d="M4.44681 10.6619C5.20067 9.97081 6.14299 9.78235 6.64557 10.2849C7.14814 10.7875 6.95968 11.7926 6.20582 12.4837C5.45196 13.1747 4.50963 13.3632 4.00706 12.8606C3.50448 12.358 3.69295 11.4157 4.44681 10.6619Z" fill="#6397CD" fill-opacity="0.23"/>
<path d="M4.50931 10.6619C5.20035 9.97081 6.2055 9.78235 6.64525 10.2849C7.14783 10.7875 6.89654 11.7298 6.2055 12.4209C5.51446 13.1119 4.57213 13.3004 4.06956 12.7978C3.56698 12.2952 3.75545 11.3529 4.50931 10.6619Z" fill="#679ACF" fill-opacity="0.25"/>
<path d="M4.50877 10.6618C5.19981 9.97073 6.14214 9.84509 6.58189 10.2848C7.02164 10.7246 6.83318 11.6669 6.20497 12.358C5.57675 13.049 4.5716 13.1746 4.06902 12.7349C3.56645 12.2951 3.81773 11.3528 4.50877 10.6618Z" fill="#6D9DD1" fill-opacity="0.27"/>
<path d="M4.57103 10.662C5.26207 10.0338 6.14158 9.84532 6.64415 10.2851C7.0839 10.7248 6.89543 11.6672 6.26722 12.2954C5.639 12.9236 4.69667 13.1121 4.1941 12.6723C3.69152 12.2325 3.87999 11.353 4.57103 10.662Z" fill="#719FD2" fill-opacity="0.29"/>
<path d="M4.63541 10.6623C5.32645 10.034 6.20595 9.84557 6.6457 10.3481C7.08545 10.8507 6.89698 11.6674 6.26877 12.2956C5.64055 12.9238 4.69823 13.1123 4.25847 12.6097C3.81872 12.1072 3.94437 11.2905 4.63541 10.6623Z" fill="#76A2D2" fill-opacity="0.31"/>
<path d="M4.63417 10.6619C5.26239 10.0336 6.14189 9.90799 6.58164 10.3477C7.02139 10.7875 6.83293 11.667 6.20472 12.2952C5.5765 12.9234 4.69699 13.0491 4.25724 12.6093C3.81749 12.1696 4.00596 11.2901 4.63417 10.6619Z" fill="#7AA4D4" fill-opacity="0.33"/>
<path d="M4.69667 10.6619C5.32488 10.0336 6.14157 9.90799 6.58132 10.3477C7.02107 10.7875 6.83261 11.6042 6.20439 12.2324C5.57618 12.8606 4.75949 12.9863 4.31974 12.5465C3.87999 12.1068 4.06845 11.2901 4.69667 10.6619Z" fill="#7EA6D5" fill-opacity="0.35"/>
<path d="M4.76083 10.6621C5.38905 10.0967 6.20573 9.90819 6.58266 10.3479C6.95959 10.7877 6.83395 11.6044 6.20573 12.1698C5.57752 12.7352 4.76083 12.8608 4.3839 12.4839C4.00697 12.107 4.13261 11.2903 4.76083 10.6621Z" fill="#82A9D6" fill-opacity="0.36"/>
<path d="M4.76053 10.6624C5.32593 10.097 6.14261 9.97134 6.51954 10.3483C6.89648 10.7252 6.77083 11.5419 6.14261 12.1073C5.51439 12.6727 4.76053 12.7983 4.3836 12.4214C4.00667 12.0445 4.19514 11.2278 4.76053 10.6624Z" fill="#85ABD8" fill-opacity="0.38"/>
<path d="M4.82285 10.6624C5.38825 10.097 6.14211 9.97134 6.58186 10.3483C7.02161 10.7252 6.83315 11.4791 6.26775 12.0445C5.70236 12.6099 4.9485 12.7355 4.57157 12.3586C4.19464 11.9816 4.25745 11.2278 4.82285 10.6624Z" fill="#8AADD9" fill-opacity="0.4"/>
<path d="M4.88699 10.6624C5.45238 10.097 6.20624 9.97134 6.58317 10.3483C6.9601 10.7252 6.83446 11.4791 6.26907 11.9816C5.70367 12.4842 4.94981 12.6727 4.57288 12.2957C4.19595 11.9188 4.32159 11.2278 4.88699 10.6624Z" fill="#8FB0DA" fill-opacity="0.42"/>
<path d="M4.88615 10.6619C5.45154 10.1593 6.14259 10.0336 6.51952 10.4106C6.89645 10.7875 6.7708 11.4785 6.20541 11.9811C5.64001 12.4837 4.94897 12.6093 4.57204 12.2952C4.19511 11.9811 4.38357 11.2273 4.88615 10.6619Z" fill="#94B2DB" fill-opacity="0.44"/>
<path d="M4.94865 10.6619C5.45122 10.1593 6.14226 10.0336 6.51919 10.4106C6.89612 10.7875 6.70766 11.4785 6.20508 11.9811C5.70251 12.4837 5.01147 12.6093 4.63454 12.2324C4.25761 11.8555 4.44607 11.2273 4.94865 10.6619Z" fill="#97B5DC" fill-opacity="0.46"/>
<path d="M5.01075 10.6619C5.51332 10.1593 6.20437 10.0336 6.51848 10.4106C6.83259 10.7875 6.70694 11.4157 6.20437 11.9183C5.70179 12.4209 5.01075 12.5465 4.69664 12.1696C4.38253 11.7926 4.50818 11.1644 5.01075 10.6619Z" fill="#9BB7DD" fill-opacity="0.48"/>
<path d="M5.0752 10.6621C5.57778 10.2223 6.206 10.0967 6.5201 10.4108C6.83421 10.7249 6.70857 11.416 6.206 11.8557C5.70342 12.2955 5.0752 12.4211 4.76109 12.107C4.44698 11.7929 4.57263 11.1647 5.0752 10.6621Z" fill="#9FBADE" fill-opacity="0.5"/>
<path d="M5.07405 10.6621C5.5138 10.2223 6.14201 10.0967 6.45612 10.4108C6.77023 10.7249 6.64459 11.3531 6.20484 11.7929C5.76509 12.2326 5.07404 12.3583 4.82275 12.0442C4.57147 11.7301 4.6343 11.1647 5.07405 10.6621Z" fill="#A3BDE1" fill-opacity="0.52"/>
<path d="M5.13806 10.6621C5.57781 10.2223 6.20603 10.0967 6.45732 10.4108C6.7086 10.8506 6.64579 11.416 6.20603 11.7301C5.76628 12.1698 5.13806 12.2955 4.82395 11.9814C4.50984 11.6672 4.6983 11.1647 5.13806 10.6621Z" fill="#A8BFE2" fill-opacity="0.54"/>
<path d="M5.20116 10.7249C5.64091 10.2852 6.20631 10.2223 6.52042 10.4736C6.83453 10.7249 6.70888 11.3531 6.26913 11.7929C5.82938 12.2326 5.26399 12.2955 4.94988 12.0442C4.63577 11.7929 4.76141 11.1019 5.20116 10.7249Z" fill="#ABC1E2" fill-opacity="0.56"/>
<path d="M5.20038 10.7249C5.57731 10.348 6.1427 10.2223 6.45681 10.5364C6.77092 10.8505 6.64528 11.3531 6.20553 11.7929C5.76578 12.2326 5.20038 12.2954 4.94909 11.9813C4.69781 11.6672 4.82345 11.1018 5.20038 10.7249Z" fill="#B0C4E4" fill-opacity="0.58"/>
<path d="M5.26288 10.7249C5.63982 10.348 6.20521 10.2223 6.45649 10.5364C6.70778 10.8505 6.64496 11.3531 6.20521 11.73C5.76546 12.107 5.26288 12.2326 5.01159 11.9185C4.76031 11.6044 4.88595 11.1018 5.26288 10.7249Z" fill="#B4C7E5" fill-opacity="0.6"/>
<path d="M5.32538 10.725C5.70231 10.348 6.20488 10.2852 6.45617 10.5365C6.70746 10.9134 6.58182 11.416 6.20489 11.6673C5.82796 12.0442 5.32538 12.1071 5.07409 11.8558C4.82281 11.6045 4.94845 11.1019 5.32538 10.725Z" fill="#B7C9E7" fill-opacity="0.62"/>
<path d="M5.32573 10.725C5.70266 10.4109 6.20523 10.2852 6.3937 10.5365C6.58216 10.7878 6.51935 11.2904 6.20524 11.6045C5.89113 11.9186 5.32573 12.0442 5.13726 11.7929C4.9488 11.5417 5.01162 11.0391 5.32573 10.725Z" fill="#BACBE7" fill-opacity="0.64"/>
<path d="M5.38855 10.725C5.76548 10.4109 6.20523 10.2852 6.39369 10.5365C6.58216 10.7878 6.51934 11.2275 6.20524 11.5417C5.89113 11.8558 5.38855 11.9186 5.20008 11.7301C4.9488 11.416 5.07444 10.9134 5.38855 10.725Z" fill="#BECDE9" fill-opacity="0.65"/>
<path d="M5.45104 10.7247C5.76515 10.4105 6.20491 10.3477 6.4562 10.5362C6.70748 10.7247 6.58184 11.1644 6.26773 11.4785C6.01644 11.7926 5.57669 11.8554 5.26259 11.667C5.0113 11.3529 5.13694 10.9131 5.45104 10.7247Z" fill="#C2D1E9" fill-opacity="0.67"/>
<path d="M5.45104 10.7247C5.76515 10.4105 6.14208 10.3477 6.39337 10.5362C6.64466 10.7247 6.51902 11.1644 6.20491 11.4785C5.8908 11.7926 5.51387 11.8554 5.26259 11.667C5.0113 11.4785 5.13694 10.9759 5.45104 10.7247Z" fill="#C4D3EB" fill-opacity="0.69"/>
<path d="M5.51518 10.725C5.82929 10.4109 6.20622 10.4109 6.39468 10.5993C6.58315 10.7878 6.52033 11.1647 6.20622 11.4788C6.01776 11.7929 5.64082 11.8558 5.32671 11.6673C5.13825 11.3532 5.20107 10.9763 5.51518 10.725Z" fill="#C9D6ED" fill-opacity="0.71"/>
<path d="M5.57768 10.725C5.82897 10.4737 6.20589 10.4109 6.39436 10.5993C6.58282 10.7878 6.52001 11.1647 6.2059 11.416C5.89179 11.6673 5.57768 11.7301 5.38921 11.5417C5.20075 11.3532 5.26357 10.9763 5.57768 10.725Z" fill="#CCD9EE" fill-opacity="0.73"/>
<path d="M5.57732 10.725C5.82861 10.4737 6.20553 10.4109 6.33118 10.5993C6.45682 10.7878 6.45682 11.1019 6.20554 11.3532C5.95425 11.6045 5.57731 11.6673 5.45167 11.4788C5.32602 11.2904 5.32603 10.9763 5.57732 10.725Z" fill="#D0DBEF" fill-opacity="0.75"/>
<path d="M5.63952 10.725C5.89081 10.4737 6.20492 10.4109 6.33056 10.5993C6.45621 10.7878 6.39339 11.1019 6.20492 11.2904C6.01646 11.5417 5.70234 11.5417 5.51388 11.416C5.32541 11.2904 5.38823 10.9134 5.63952 10.725Z" fill="#D4DEF0" fill-opacity="0.77"/>
<path d="M5.70397 10.7248C5.95526 10.4735 6.20654 10.4735 6.39501 10.5991C6.58347 10.7248 6.45783 11.0389 6.26937 11.2902C6.0809 11.5415 5.7668 11.5415 5.57833 11.4158C5.38987 11.1645 5.45269 10.8504 5.70397 10.7248Z" fill="#D7E1F0" fill-opacity="0.79"/>
<path d="M5.70273 10.7247C5.89119 10.5362 6.2053 10.4734 6.33095 10.5991C6.45659 10.7247 6.39377 10.976 6.2053 11.2273C6.01684 11.4786 5.70273 11.4786 5.57709 11.3529C5.45144 11.2273 5.51426 10.9132 5.70273 10.7247Z" fill="#DBE2F2" fill-opacity="0.81"/>
<path d="M5.76523 10.725C5.95369 10.5365 6.20499 10.4737 6.33063 10.6621C6.45627 10.8506 6.39345 11.0391 6.20499 11.2275C6.01652 11.416 5.76523 11.4788 5.63959 11.2904C5.51394 11.1019 5.57676 10.9134 5.76523 10.725Z" fill="#DEE6F4" fill-opacity="0.83"/>
<path d="M5.82896 10.7251C6.01743 10.5366 6.20589 10.5366 6.33154 10.6623C6.45718 10.7879 6.39436 10.9764 6.26871 11.1648C6.14307 11.2905 5.9546 11.3533 5.76614 11.2277C5.57767 11.102 5.6405 10.9136 5.82896 10.7251Z" fill="#E2E8F5" fill-opacity="0.85"/>
<path d="M5.89127 10.7246C6.01691 10.5989 6.2682 10.5361 6.33102 10.6617C6.39384 10.7874 6.39384 10.9759 6.26819 11.1015C6.14255 11.2271 5.89127 11.29 5.82844 11.1643C5.76562 11.0387 5.70281 10.8502 5.89127 10.7246Z" fill="#E5EBF6" fill-opacity="0.87"/>
<path d="M5.8912 10.7246C6.01684 10.5989 6.2053 10.5361 6.26812 10.6617C6.33094 10.7874 6.33095 10.913 6.20531 11.0387C6.07966 11.1643 5.89119 11.2271 5.82837 11.1015C5.76555 10.9759 5.76555 10.8502 5.8912 10.7246Z" fill="#E8EEF7" fill-opacity="0.89"/>
<path d="M5.95377 10.7247C6.07941 10.599 6.20505 10.599 6.26788 10.6619C6.3307 10.7247 6.3307 10.9132 6.20506 10.976C6.07942 11.0388 5.95377 11.1016 5.82813 11.0388C5.82813 10.976 5.82812 10.7875 5.95377 10.7247Z" fill="#ECF1FA" fill-opacity="0.91"/>
<path d="M6.01815 10.7251C6.08097 10.6623 6.26944 10.5994 6.33226 10.6623C6.39508 10.7251 6.39508 10.8507 6.26943 10.9764C6.14379 11.102 6.01815 11.102 5.95533 11.0392C5.8925 10.9764 5.89251 10.8507 6.01815 10.7251Z" fill="#F1F3FA" fill-opacity="0.92"/>
<path d="M6.01658 10.7249C6.0794 10.6621 6.20504 10.6621 6.26786 10.6621C6.33069 10.6621 6.26787 10.8506 6.20505 10.9134C6.14223 10.9762 6.01658 10.9762 5.95376 10.9762C5.89093 10.9762 5.95376 10.7878 6.01658 10.7249Z" fill="#F4F7FD" fill-opacity="0.94"/>
<path d="M6.08039 10.7249C6.14322 10.662 6.20604 10.662 6.26886 10.7249C6.33168 10.7877 6.26887 10.8505 6.20605 10.9133C6.14322 10.9761 6.0804 10.9761 6.01758 10.9133C6.01758 10.8505 6.01757 10.7877 6.08039 10.7249Z" fill="#F8F9FD" fill-opacity="0.96"/>
<path d="M6.1429 10.7249C6.20573 10.662 6.26855 10.662 6.26855 10.7249C6.26855 10.7877 6.26855 10.8505 6.20573 10.8505C6.14291 10.9133 6.08008 10.9133 6.08008 10.8505C6.08008 10.7877 6.08008 10.7877 6.1429 10.7249Z" fill="#FCFDFE" fill-opacity="0.98"/>
<path d="M6.25765 10.8231C6.28251 10.7989 6.28304 10.7591 6.25884 10.7342C6.23464 10.7094 6.19487 10.7088 6.17001 10.733C6.14516 10.7572 6.14462 10.797 6.16882 10.8219C6.19302 10.8467 6.23279 10.8473 6.25765 10.8231Z" fill="white"/>
</g>
<path d="M5.45312 8.46356C7.71471 6.20198 9.78783 4.19169 11.6097 2.55832C13.4943 0.799314 15.3161 0.171096 16.9495 0.610848C17.5149 2.55832 17.0123 4.38015 15.379 6.01352C13.3058 8.08663 11.1699 10.2226 9.09679 12.2957C7.46342 10.6623 6.26981 9.34307 5.45312 8.46356Z" fill="url(#paint0_linear_6905_2224)"/>
<path d="M11.4209 4.38053C10.9183 4.19207 9.34777 6.0139 5.89258 8.96652C6.01822 9.15498 6.20668 9.28063 6.33233 9.40627C8.46827 7.33315 10.1644 5.63697 11.4209 4.38053Z" fill="white"/>
<path d="M8.28012 11.2276C8.28012 11.1648 8.28012 11.1648 8.28012 11.1648H8.34295C8.34295 11.1648 8.34295 11.1648 8.40577 11.1648V11.2276C8.40577 11.2276 8.40577 11.2276 8.40577 11.2905H8.34295C8.34295 11.2276 8.28012 11.2276 8.28012 11.2276ZM8.02884 10.9135C8.02884 10.8507 8.02884 10.8507 8.02884 10.8507C8.02884 10.8507 8.02884 10.8507 8.09166 10.8507H8.15448V10.9135V10.9764L8.02884 10.9135ZM7.71473 10.6623C7.71473 10.5994 7.71473 10.5994 7.71473 10.6623V10.5366H7.77756H7.84037C7.84037 10.5366 7.84037 10.5366 7.84037 10.5994V10.6623C7.84037 10.6623 7.84038 10.6623 7.77756 10.6623C7.77756 10.5994 7.71473 10.5994 7.71473 10.6623ZM7.46345 10.3481V10.2853H7.52626C7.52626 10.2853 7.52627 10.2853 7.58909 10.2853V10.3481C7.58909 10.3481 7.58909 10.3481 7.58909 10.411H7.52626L7.46345 10.3481ZM7.21215 10.034C7.21215 9.97121 7.21215 9.97121 7.21215 10.034C7.27498 9.97121 7.27497 9.97121 7.3378 9.97121V10.034C7.3378 10.034 7.3378 10.034 7.3378 10.0969C7.27497 10.0969 7.27498 10.0969 7.21215 10.034ZM6.89805 9.71993V9.6571H6.96087H7.02369V9.71993V9.78275L6.89805 9.71993ZM6.64676 9.46864L6.7724 9.40582V9.46864V9.53146L6.64676 9.46864ZM6.39547 9.15453C6.33265 9.15453 6.33265 9.09171 6.39547 9.15453C6.45829 9.09171 6.4583 9.09171 6.52112 9.09171C6.58394 9.09171 6.52112 9.09171 6.52112 9.15453V9.21735C6.52112 9.21735 6.52112 9.21735 6.4583 9.21735C6.4583 9.21735 6.39547 9.15453 6.39547 9.15453ZM6.08136 8.84042C6.08136 8.7776 6.08136 8.7776 6.08136 8.7776H6.14419H6.20701V8.84042V8.90324H6.14419L6.08136 8.84042ZM5.8929 8.33785C5.95573 8.33785 5.95572 8.33785 5.95572 8.33785C5.95572 8.33785 5.95572 8.33785 5.95572 8.40067V8.46349H5.8929C5.8929 8.46349 5.8929 8.46349 5.83008 8.46349L5.8929 8.33785ZM6.20701 8.08656H6.26983V8.14938C6.26983 8.14938 6.26983 8.14938 6.26983 8.2122H6.20701C6.20701 8.2122 6.20701 8.2122 6.14419 8.2122L6.20701 8.08656ZM6.4583 7.77245H6.52112C6.52112 7.77245 6.52112 7.77245 6.52112 7.83527V7.89809H6.4583H6.39547C6.45829 7.83527 6.4583 7.83527 6.4583 7.77245ZM6.7724 7.45834C6.83523 7.45834 6.83523 7.45834 6.7724 7.45834C6.83523 7.52116 6.83523 7.52116 6.83523 7.52116C6.83523 7.52116 6.83523 7.52116 6.7724 7.52116H6.70958L6.7724 7.45834C6.70958 7.52116 6.70958 7.52116 6.7724 7.45834ZM7.08651 7.14423H7.14934V7.20706V7.26988H7.08651C7.08651 7.26988 7.08651 7.26988 7.02369 7.26988V7.20706L7.08651 7.14423ZM7.40062 6.89295C7.40062 6.95577 7.40062 7.01859 7.3378 7.01859H7.27498C7.27498 7.01859 7.27498 7.01859 7.27498 6.95577M7.27498 6.95577C7.27498 6.89295 7.27498 6.89295 7.27498 6.95577ZM7.6519 6.57884C7.71473 6.70448 7.71473 6.64166 7.71473 6.64166H7.6519C7.6519 6.64166 7.65191 6.64166 7.58909 6.64166L7.6519 6.57884ZM7.9032 6.32755H7.96601V6.39037V6.45319H7.9032H7.84037L7.9032 6.32755ZM8.21731 6.01344H8.28012C8.28012 6.01344 8.28012 6.01344 8.28012 6.07626V6.13909H8.21731H8.15448C8.15448 6.13909 8.15448 6.07626 8.21731 6.01344C8.15448 6.07626 8.15448 6.07626 8.21731 6.01344ZM8.53141 5.76216C8.59424 5.76216 8.59423 5.76216 8.59423 5.76216V5.82498C8.59423 5.82498 8.59423 5.82498 8.59423 5.8878C8.59423 5.8878 8.59424 5.8878 8.53141 5.8878H8.46859C8.46859 5.82498 8.46859 5.82498 8.53141 5.76216C8.46859 5.82498 8.46859 5.76216 8.53141 5.76216ZM8.7827 5.44805H8.84552C8.84552 5.44805 8.84552 5.44805 8.84552 5.51087V5.57369C8.84552 5.57369 8.84552 5.57369 8.7827 5.57369H8.71988C8.7827 5.57369 8.7827 5.51087 8.7827 5.44805ZM9.09681 5.19676C9.15963 5.19676 9.15963 5.19676 9.15963 5.19676V5.25958C9.15963 5.25958 9.15963 5.25958 9.15963 5.3224C9.15963 5.3224 9.15963 5.3224 9.09681 5.3224H9.03399L9.09681 5.19676ZM9.41091 4.88265H9.47374H9.53656C9.53656 4.88265 9.53656 4.88265 9.53656 4.94547C9.53656 5.00829 9.53656 5.00829 9.47374 5.00829H9.41091C9.34809 5.00829 9.34809 4.94547 9.41091 4.88265ZM9.66221 4.63136H9.72502C9.72502 4.63136 9.72502 4.63136 9.72502 4.69419V4.75701C9.72502 4.75701 9.72503 4.75701 9.66221 4.75701H9.59938C9.59938 4.75701 9.53656 4.75701 9.53656 4.69419C9.53656 4.63136 9.66221 4.63136 9.66221 4.63136ZM9.97632 4.38008H10.0391V4.4429C10.0391 4.4429 10.0391 4.4429 10.0391 4.50572H9.97632H9.91349C9.91349 4.4429 9.91349 4.4429 9.97632 4.38008C9.91349 4.38008 9.91349 4.31726 9.97632 4.38008ZM10.2904 4.06597H10.3532V4.12879C10.3532 4.12879 10.3532 4.12879 10.3532 4.19161H10.2904C10.2904 4.19161 10.2904 4.19161 10.2276 4.19161C10.2276 4.19161 10.2276 4.19161 10.2904 4.06597C10.2276 4.12879 10.2276 4.06597 10.2904 4.06597ZM10.6045 3.81468C10.6674 3.81468 10.6673 3.81468 10.6673 3.81468C10.6673 3.81468 10.6673 3.81468 10.6673 3.8775V3.94033H10.6045C10.6045 3.94033 10.6045 3.94033 10.5417 3.94033C10.5417 3.8775 10.5417 3.8775 10.6045 3.81468ZM10.8558 3.56339H10.9186V3.62622C10.9186 3.62622 10.9186 3.62622 10.9186 3.68904H10.8558C10.8558 3.68904 10.8558 3.68904 10.793 3.68904C10.8558 3.62622 10.8558 3.62622 10.8558 3.56339C10.8558 3.50057 10.8558 3.50057 10.8558 3.56339ZM11.1699 3.24929C11.2327 3.31211 11.2327 3.24929 11.1699 3.24929C11.2327 3.31211 11.2328 3.31211 11.2328 3.37493H11.1699H11.1071V3.31211C11.1071 3.31211 11.1071 3.31211 11.1071 3.24929C11.1071 3.24929 11.1699 3.24929 11.1699 3.24929ZM11.484 2.998C11.5469 2.998 11.5469 2.998 11.484 2.998C11.5469 3.06082 11.5469 3.06082 11.5469 3.12364H11.484H11.4212C11.4212 3.06082 11.4212 2.998 11.484 2.998ZM11.7981 2.68389C11.7981 2.74671 11.7981 2.74671 11.7981 2.68389C11.861 2.74671 11.861 2.74671 11.861 2.80953H11.7981C11.7981 2.80953 11.7981 2.80953 11.7353 2.80953C11.7353 2.80953 11.7353 2.74671 11.7981 2.68389C11.7353 2.74671 11.7353 2.68389 11.7981 2.68389ZM12.1123 2.4326H12.1751V2.49543C12.1751 2.49543 12.1751 2.49543 12.1751 2.55825H12.1123H12.0494C12.0494 2.55825 12.0494 2.55825 12.1123 2.4326ZM12.4264 2.18132C12.4892 2.18132 12.4892 2.18132 12.4892 2.18132C12.4892 2.18132 12.4892 2.18132 12.4892 2.24414C12.4892 2.24414 12.4892 2.24414 12.4892 2.30696H12.4264H12.3635L12.4264 2.18132ZM12.7405 1.93003C12.8033 1.93003 12.8033 1.93003 12.8033 1.93003V1.99285C12.8033 1.99285 12.8033 2.05567 12.7405 2.05567H12.6776H12.6148C12.6148 2.05567 12.6776 2.05567 12.7405 1.93003C12.6776 1.99285 12.6776 1.99285 12.7405 1.93003ZM13.0546 1.67874C13.1174 1.74156 13.1174 1.74156 13.0546 1.67874C13.0546 1.74156 13.0546 1.74156 13.0546 1.74156C13.0546 1.74156 13.0546 1.74156 12.9918 1.74156C12.9918 1.74156 12.9918 1.74156 12.9918 1.67874C13.0546 1.74156 13.0546 1.74156 13.0546 1.67874ZM13.4315 1.49028H13.4943V1.5531H13.4315V1.49028C13.3687 1.5531 13.3687 1.5531 13.4315 1.49028C13.3687 1.49028 13.3687 1.49028 13.4315 1.49028ZM13.8084 1.30181H13.8713V1.36463C13.8713 1.36463 13.8713 1.36463 13.8084 1.42746H13.7456C13.7456 1.36463 13.7456 1.36463 13.8084 1.30181C13.7456 1.30181 13.6828 1.30181 13.8084 1.30181C13.7456 1.30181 13.7456 1.30181 13.8084 1.30181ZM14.1854 1.11335C14.2482 1.17617 14.1854 1.17617 14.1854 1.17617H14.1225C14.1225 1.17617 14.1226 1.17617 14.0597 1.17617C14.0597 1.17617 14.0597 1.17617 14.0597 1.11335C14.0597 1.11335 14.0597 1.11335 14.0597 1.05053L14.1854 1.11335ZM14.5623 0.924882H14.6251V0.987704C14.6251 0.987704 14.6251 0.987704 14.5623 1.05053H14.4995C14.4995 1.05053 14.4995 1.05053 14.4995 0.987704C14.4995 1.05053 14.4995 1.05053 14.5623 0.924882C14.4995 0.987704 14.4995 0.987704 14.5623 0.924882ZM14.9392 0.86206H15.0021V0.924882C15.0021 0.924882 15.0021 0.924882 14.9392 0.987704H14.8764C14.8764 0.987704 14.8764 0.987704 14.8136 0.924882L14.9392 0.86206C14.8764 0.86206 14.8764 0.86206 14.9392 0.86206ZM15.379 0.736417C15.379 0.799239 15.379 0.799239 15.379 0.799239H15.3162C15.3162 0.799239 15.3162 0.799239 15.3162 0.736417H15.379ZM15.7559 0.736417C15.8187 0.799239 15.7559 0.799239 15.7559 0.736417C15.7559 0.799239 15.6931 0.799239 15.6931 0.799239C15.6931 0.799239 15.6931 0.799239 15.6303 0.736417C15.6303 0.736417 15.6303 0.736417 15.6931 0.736417H15.7559ZM16.1957 0.736417C16.2585 0.736417 16.2585 0.736417 16.1957 0.736417C16.2585 0.799239 16.2585 0.799239 16.2585 0.799239H16.1957C16.1957 0.799239 16.1328 0.799239 16.1957 0.736417C16.1328 0.736417 16.1328 0.736417 16.1957 0.736417C16.1328 0.736417 16.1328 0.673595 16.1957 0.736417ZM16.6354 0.736417C16.6982 0.799239 16.6982 0.799239 16.6982 0.799239H16.6354H16.5726V0.736417H16.6354ZM16.9495 1.23899C16.8867 1.30181 16.8867 1.30181 16.8867 1.30181C16.8867 1.30181 16.8867 1.30181 16.8867 1.23899V1.17617C16.8239 1.17617 16.8239 1.17617 16.9495 1.23899ZM16.9495 1.61592C16.9495 1.67874 16.9495 1.67874 16.9495 1.61592C16.8867 1.61592 16.8867 1.61592 16.9495 1.61592L17.0123 1.5531C17.0123 1.61592 17.0123 1.61592 16.9495 1.61592ZM17.0123 2.05567C16.9495 2.05567 16.9495 2.05567 16.9495 2.05567V1.99285V1.93003H17.0123H17.0752C17.0123 1.93003 17.0752 1.93003 17.0123 2.05567ZM17.0123 2.4326C16.9495 2.49543 16.9495 2.49543 16.9495 2.49543C16.8867 2.49543 16.8867 2.49543 16.8239 2.4326C16.8239 2.4326 16.8239 2.4326 16.8239 2.36978H16.8867H16.9495C16.8867 2.36978 16.9495 2.36978 17.0123 2.4326ZM16.9495 2.87236C16.8867 2.87236 16.8867 2.87236 16.8867 2.87236C16.8867 2.87236 16.8867 2.87236 16.8867 2.80953H16.9495V2.87236ZM16.8239 3.31211C16.7611 3.31211 16.7611 3.24929 16.8239 3.31211C16.7611 3.24929 16.8239 3.24929 16.8239 3.18646C16.8239 3.18646 16.8239 3.18646 16.8867 3.18646C16.8867 3.24929 16.8867 3.24929 16.8239 3.31211ZM16.7611 3.68904C16.6982 3.68904 16.6982 3.68904 16.6982 3.68904V3.62622C16.6982 3.62622 16.6982 3.62622 16.7611 3.68904C16.7611 3.62622 16.6982 3.62622 16.7611 3.68904C16.7611 3.62622 16.7611 3.62622 16.7611 3.68904Z" fill="#9C3E33"/>
<path d="M16.5724 4.06639H16.4468C16.4468 4.06639 16.4468 4.06639 16.384 4.00357V3.94075L16.4468 3.87793H16.5096C16.5096 3.87793 16.5096 3.87793 16.5724 3.87793C16.5724 3.94075 16.5724 4.06639 16.5724 4.06639ZM16.384 4.44332H16.3211C16.3211 4.44332 16.2583 4.44333 16.2583 4.3805V4.31768C16.2583 4.31768 16.2583 4.31768 16.3211 4.31768H16.384C16.384 4.3805 16.384 4.44332 16.384 4.44332ZM16.1327 4.82026C16.0699 4.75743 16.0699 4.75743 16.0699 4.69461C16.0699 4.69461 16.0699 4.69461 16.1327 4.69461H16.1955C16.1955 4.69461 16.2583 4.75743 16.1955 4.75743C16.1955 4.82026 16.1955 4.82026 16.1327 4.82026ZM15.8814 5.13436H15.8186C15.8186 5.13436 15.8186 5.13436 15.7557 5.07154V5.00872H15.8186C15.8186 5.00872 15.8186 5.00872 15.8814 5.00872C15.8814 5.07154 15.8814 5.07154 15.8814 5.13436C15.9442 5.13436 15.8814 5.07154 15.8814 5.13436ZM15.6301 5.44847H15.5673V5.38565V5.32283C15.5673 5.32283 15.5673 5.32283 15.6301 5.32283H15.6929L15.6301 5.44847C15.6929 5.44847 15.6929 5.38565 15.6301 5.44847ZM15.3788 5.76258H15.316C15.316 5.76258 15.316 5.76258 15.316 5.69976V5.63694H15.3788H15.4416C15.4416 5.69976 15.4416 5.69976 15.3788 5.76258C15.4416 5.76258 15.4416 5.69976 15.3788 5.76258ZM15.0647 6.07669C15.0019 6.07669 15.0019 6.07669 15.0019 6.07669C15.0019 6.07669 15.0019 6.07669 15.0019 6.01387V5.95105H15.0647H15.1275C15.1275 5.95105 15.1275 5.95105 15.0647 6.07669C15.1275 6.01387 15.1275 6.01387 15.0647 6.07669ZM14.8134 6.32798H14.7506V6.26516C14.7506 6.26516 14.7506 6.26516 14.7506 6.20233H14.8134C14.8134 6.20233 14.8134 6.20233 14.8762 6.20233M14.4993 6.64209H14.4365C14.4365 6.64209 14.4365 6.64209 14.4365 6.57926C14.4365 6.57926 14.4365 6.57926 14.4365 6.51644H14.4993H14.5621C14.5621 6.51644 14.5621 6.51644 14.4993 6.64209ZM14.1852 6.89337H14.1224C14.1224 6.89337 14.1224 6.89337 14.1224 6.83055V6.76773H14.1852H14.248L14.1852 6.89337C14.248 6.89337 14.248 6.89337 14.1852 6.89337ZM13.9339 7.20748C13.8711 7.20748 13.8711 7.20748 13.8711 7.20748V7.14466C13.8711 7.14466 13.8711 7.14466 13.8711 7.08184C13.8711 7.08184 13.8711 7.08184 13.9339 7.08184H13.9967C13.9967 7.08184 13.9967 7.14466 13.9339 7.20748ZM13.6198 7.45877H13.557H13.4942V7.39595C13.4942 7.39595 13.4942 7.39595 13.4942 7.33312H13.557C13.557 7.33312 13.557 7.33312 13.6198 7.33312V7.45877ZM13.3685 7.77288C13.3057 7.77288 13.3057 7.77288 13.3685 7.77288C13.3057 7.71005 13.3057 7.71006 13.3057 7.64723H13.3685H13.4313C13.4313 7.71006 13.4313 7.71005 13.3685 7.77288ZM13.0544 8.02416C12.9916 8.08699 12.9916 8.08699 13.0544 8.02416C12.9916 8.02416 12.9916 8.02416 13.0544 8.02416C13.0544 7.96134 13.0544 7.96134 13.0544 8.02416C13.1172 7.96134 13.0544 7.96134 13.0544 8.02416C13.1172 8.02416 13.1172 8.02416 13.0544 8.02416C13.1172 8.02416 13.0544 8.08699 13.0544 8.02416ZM12.8031 8.33827H12.7403H12.6775V8.27545V8.21263H12.7403H12.8031C12.8031 8.21263 12.8031 8.21263 12.8031 8.27545C12.8031 8.27545 12.8031 8.27545 12.8031 8.33827ZM12.489 8.58956H12.4262V8.52674C12.4262 8.52674 12.4262 8.52674 12.4262 8.46392H12.489C12.489 8.46392 12.489 8.46392 12.5518 8.46392L12.489 8.58956ZM12.2377 8.90367H12.1749V8.84085V8.77802H12.2377C12.2377 8.77802 12.2377 8.77802 12.3006 8.77802C12.2377 8.84085 12.2377 8.84085 12.2377 8.90367ZM11.9236 9.21778H11.8608C11.8608 9.21778 11.8608 9.21778 11.8608 9.15495V9.09213H11.9236H11.9864C11.9236 9.09213 11.9236 9.15495 11.9236 9.21778C11.9236 9.15495 11.9236 9.15495 11.9236 9.21778ZM11.6095 9.46906C11.5467 9.40624 11.6095 9.34342 11.6095 9.34342H11.6723V9.40624C11.7352 9.40624 11.6723 9.46906 11.6095 9.46906ZM11.3582 9.78317H11.2954C11.2954 9.78317 11.2954 9.78317 11.2954 9.72035C11.2954 9.72035 11.2954 9.72035 11.2954 9.65753H11.3582C11.3582 9.65753 11.3582 9.65753 11.421 9.65753C11.3582 9.65753 11.3582 9.65753 11.3582 9.78317ZM11.0441 10.0345H10.9813C10.9813 10.0345 10.9813 10.0345 10.9813 9.97164V9.90882C10.9813 9.90882 10.9813 9.90882 11.0441 9.90882H11.1069C11.1069 10.0345 11.1069 10.0345 11.0441 10.0345C11.1069 10.0345 11.1069 10.0345 11.0441 10.0345ZM10.7928 10.3486C10.73 10.3486 10.73 10.3486 10.73 10.3486C10.73 10.3486 10.73 10.3486 10.73 10.2857V10.2229C10.73 10.2229 10.73 10.2229 10.7928 10.2229H10.8557C10.8557 10.2857 10.8556 10.2857 10.7928 10.3486ZM10.4787 10.5999C10.4159 10.537 10.4159 10.537 10.4159 10.537H10.4787C10.4787 10.537 10.4787 10.537 10.5415 10.537V10.5999H10.4787ZM10.2274 10.914H10.1646C10.1646 10.914 10.1646 10.914 10.1646 10.8511V10.7883H10.2274C10.2274 10.7883 10.2274 10.7883 10.2903 10.7883C10.2274 10.8511 10.2274 10.914 10.2274 10.914ZM9.91333 11.2281H9.8505C9.8505 11.2281 9.8505 11.2281 9.8505 11.1652V11.1024C9.8505 11.1024 9.8505 11.1024 9.91333 11.1024H9.97615C9.97615 11.1652 9.97615 11.1653 9.91333 11.2281ZM9.59922 11.5422C9.5364 11.5422 9.53639 11.5422 9.53639 11.5422V11.4794C9.53639 11.4794 9.53639 11.4794 9.53639 11.4165H9.59922H9.66204L9.59922 11.5422ZM9.34793 11.7935H9.28511V11.7306C9.28511 11.7306 9.28511 11.7306 9.28511 11.6678H9.34793H9.41075L9.34793 11.7935ZM8.84536 11.7935V11.7306C8.84536 11.7306 8.84535 11.7306 8.90817 11.7306H8.971V11.7935V11.8563L8.84536 11.7935ZM8.53125 11.5422C8.53125 11.4794 8.53125 11.4794 8.53125 11.5422C8.53125 11.4794 8.53125 11.4794 8.53125 11.4794C8.53125 11.4794 8.53124 11.4794 8.59407 11.4794H8.65689V11.5422C8.65689 11.5422 8.65689 11.5422 8.65689 11.605C8.65689 11.5422 8.59407 11.5422 8.53125 11.5422Z" fill="#9C3E33"/>
<path d="M9.0332 12.2958C10.2268 11.1022 11.4832 9.84579 12.7397 8.58936C13.3679 8.84064 13.4307 9.21757 12.9281 9.78297C12.1743 10.5368 11.1063 11.6676 9.66142 13.0497C9.34731 12.6728 9.15885 12.4215 9.0332 12.2958Z" fill="url(#paint1_linear_6905_2224)"/>
<path d="M9.34739 4.69457C9.03328 4.192 8.65634 4.06635 8.27941 4.44329C7.14862 5.44843 6.01783 6.5164 4.82422 7.77284C5.07551 8.02412 5.26397 8.27541 5.51526 8.5267C7.21145 6.83051 8.46789 5.51125 9.34739 4.69457Z" fill="url(#paint2_linear_6905_2224)"/>
<path d="M9.03328 12.1701L5.51526 8.46362C5.45244 8.4008 5.3268 8.4008 5.26398 8.46362L4.82422 8.84055L8.65635 12.7983L9.03328 12.3586C9.0961 12.3586 9.0961 12.2957 9.03328 12.1701Z" fill="url(#paint3_linear_6905_2224)"/>
<defs>
<linearGradient id="paint0_linear_6905_2224" x1="20.3464" y1="13.9755" x2="24.2876" y2="17.9964" gradientUnits="userSpaceOnUse">
<stop stop-color="#F0900D"/>
<stop offset="0.29" stop-color="#FCC10C"/>
<stop offset="0.73" stop-color="#E85414"/>
<stop offset="1" stop-color="#F0900D"/>
</linearGradient>
<linearGradient id="paint1_linear_6905_2224" x1="21.2281" y1="20.7742" x2="21.8124" y2="21.3592" gradientUnits="userSpaceOnUse">
<stop stop-color="#E85414"/>
<stop offset="0.32" stop-color="#ED7A10"/>
<stop offset="1" stop-color="#D41B26"/>
</linearGradient>
<linearGradient id="paint2_linear_6905_2224" x1="16.4676" y1="16.3841" x2="17.335" y2="17.3225" gradientUnits="userSpaceOnUse">
<stop stop-color="#F6AC4E"/>
<stop offset="0.51" stop-color="#F6B45B"/>
<stop offset="1" stop-color="#E85414"/>
</linearGradient>
<linearGradient id="paint3_linear_6905_2224" x1="6.41376" y1="11.2015" x2="6.98799" y2="10.6465" gradientUnits="userSpaceOnUse">
<stop stop-color="#626467"/>
<stop offset="0.25" stop-color="#1E1E1F"/>
<stop offset="1" stop-color="#626467"/>
</linearGradient>
</defs>
</svg>
