<svg width="203" height="60" viewBox="0 0 203 60" fill="none" xmlns="http://www.w3.org/2000/svg">
<path d="M179.327 19.7518C179.152 19.4891 179.415 19.0514 179.502 18.9638C179.853 18.7012 180.028 18.351 180.028 17.9133C180.028 16.4249 180.903 15.0242 182.216 14.4113C182.829 14.0611 183.442 13.886 184.055 13.7109C183.53 13.1857 183.88 12.6604 184.318 12.3102C184.23 12.2226 184.055 12.0475 183.967 11.8724C183.705 11.6973 183.705 11.3471 183.967 11.0845C185.543 9.42108 187.119 7.84521 188.783 6.35689C189.308 5.8316 190.183 5.74406 190.709 6.26935C191.584 5.48141 192.46 4.60593 193.423 3.818C195.611 1.80439 198.413 0.140974 201.477 1.01646L201.827 1.104L201.915 1.4542C202.878 4.60593 201.827 7.31992 199.551 9.59618L196.487 12.6604C196.662 12.8355 196.749 13.0106 196.749 13.1857C196.837 13.7985 196.662 14.4113 196.224 14.8491C194.736 16.4249 193.16 17.9133 191.584 19.4016C191.321 19.6642 190.971 19.5767 190.709 19.4016C190.621 19.2265 190.446 19.1389 190.358 18.9638C190.008 19.314 189.483 19.4016 189.133 19.0514C189.045 18.9638 189.045 18.9638 188.958 18.8763C188.432 20.9774 186.506 22.4658 184.405 22.4658C184.055 22.4658 183.705 22.6409 183.53 22.991C183.355 23.5163 182.917 23.9541 182.392 24.2167C181.866 24.3043 181.341 24.2167 180.903 23.9541C180.465 24.6545 179.94 25.1797 179.24 25.6175C178.714 25.9677 177.839 25.5299 178.452 24.6545C178.539 24.4794 178.452 24.3043 178.452 24.2167C178.277 23.8665 178.102 23.5163 177.927 23.1661V23.0786V22.991C177.401 21.6778 178.277 20.5397 179.327 19.7518Z" fill="#2B2A29"/>
<path d="M188.433 17.2132C188.783 19.4019 187.295 21.4155 185.106 21.7657C184.844 21.7657 184.669 21.8533 184.406 21.8533C183.793 21.7657 183.18 22.2035 182.918 22.8163C182.655 23.6042 182.217 23.8669 181.517 23.6042C182.13 23.3416 182.48 22.8163 182.305 22.4661C182.13 22.1159 181.517 22.1159 181.254 22.5537C180.992 22.9914 180.641 23.4291 180.379 23.8669C180.029 24.3922 179.591 24.8299 178.978 25.1801C179.241 24.9175 179.241 24.4797 179.066 24.1295C178.891 23.6918 178.628 23.3416 178.453 22.9039C177.84 21.5906 179.416 20.0148 180.729 19.8397C181.079 19.8397 181.429 19.4895 181.429 19.1393C181.429 19.1393 181.429 19.1393 181.429 19.0517C180.904 19.0517 180.291 19.2268 179.854 19.577C180.291 19.2268 180.641 18.614 180.641 18.0012C180.641 16.7755 181.342 15.6374 182.48 15.1121C183.093 14.7619 183.793 14.4992 184.581 14.3241C184.931 14.3241 185.019 14.2366 185.019 14.0615C185.019 13.8864 185.106 13.7988 185.457 13.8864C186.682 14.8494 187.645 15.9876 188.433 17.2132Z" fill="#089ED3"/>
<path d="M188.257 17.1241C188.344 17.8245 188.081 18.6124 187.644 19.2253C187.031 20.1008 185.98 20.7136 184.93 20.626C184.229 20.626 183.529 21.0638 183.266 21.6766C183.179 22.1144 182.916 22.5521 182.566 22.9898C183.004 22.2895 182.916 21.6766 182.216 21.5891C181.603 21.5891 181.078 21.9393 180.815 22.4646C180.64 23.1649 180.202 23.6902 179.589 24.0404C179.852 23.8653 179.852 23.6902 179.502 23.2525C178.364 22.0268 179.152 20.626 180.552 20.1883C181.428 20.0132 182.041 19.3128 182.128 18.4373C181.69 18.3498 181.34 18.4373 180.99 18.7C181.165 18.5249 181.34 18.3498 181.34 18.0872C181.34 17.8245 181.34 17.4743 181.253 17.2117C181.253 16.5988 181.515 16.1611 182.216 15.6358C183.792 14.6728 184.842 14.1475 185.455 14.235C186.681 14.9354 187.644 15.8984 188.257 17.1241Z" fill="#13539E"/>
<path d="M186.244 14.4977C184.581 15.2857 183.443 15.2857 183.005 16.4238C183.793 16.6864 184.231 17.4744 183.706 18.0872C183.268 18.525 182.918 19.1378 182.83 19.7506C183.355 19.7506 183.881 19.5755 184.318 19.2253C184.844 18.7876 185.544 18.7876 186.42 18.2623C187.558 17.4744 187.995 16.6864 187.645 15.7234C187.295 14.7604 186.945 14.3226 186.244 14.4977Z" fill="#2F85C1"/>
<mask id="mask0_6908_2326" style="mask-type:luminance" maskUnits="userSpaceOnUse" x="182" y="14" width="6" height="6">
<path d="M186.242 14.4977C184.579 15.2857 183.441 15.2857 183.003 16.4238C183.791 16.6864 184.229 17.4744 183.704 18.0872C183.266 18.525 182.916 19.1378 182.828 19.7506C183.353 19.7506 183.879 19.5755 184.316 19.2253C184.842 18.7876 185.542 18.7876 186.418 18.2623C187.556 17.4744 187.993 16.6864 187.643 15.7234C187.293 14.7604 186.943 14.3226 186.242 14.4977Z" fill="white"/>
</mask>
<g mask="url(#mask0_6908_2326)">
<path d="M183.265 15.6359C184.578 14.4103 186.242 14.0601 187.117 14.9355C187.993 15.811 187.642 17.562 186.329 18.7877C185.016 20.0133 183.353 20.3635 182.477 19.488C181.602 18.6126 182.039 16.8616 183.265 15.6359Z" fill="#2F85C1" fill-opacity="0.02"/>
<path d="M183.351 15.6356C184.577 14.41 186.328 14.1473 187.116 14.9352C187.904 15.7232 187.641 17.4741 186.328 18.6998C185.015 19.9255 183.351 20.1881 182.476 19.3127C181.6 18.4372 182.126 16.8613 183.351 15.6356Z" fill="#2783C1" fill-opacity="0.04"/>
<path d="M183.439 15.6362C184.664 14.4105 186.328 14.1478 187.203 15.0233C188.079 15.8988 187.729 17.5622 186.503 18.7004C185.277 19.8385 183.614 20.1887 182.738 19.3132C181.863 18.4377 182.213 16.8618 183.439 15.6362Z" fill="#2F85C2" fill-opacity="0.06"/>
<path d="M183.442 15.6362C184.667 14.4105 186.331 14.1478 187.119 15.0233C187.907 15.8988 187.644 17.4747 186.418 18.6128C185.193 19.7509 183.529 20.1011 182.741 19.2256C181.953 18.3502 182.304 16.8618 183.442 15.6362Z" fill="#3886C3" fill-opacity="0.08"/>
<path d="M183.527 15.6361C184.753 14.4979 186.329 14.2353 187.117 15.0232C187.905 15.8112 187.554 17.4746 186.416 18.6127C185.278 19.7508 183.615 20.0135 182.827 19.2255C182.039 18.4376 182.302 16.7742 183.527 15.6361Z" fill="#3C88C5" fill-opacity="0.1"/>
<path d="M183.616 15.6361C184.754 14.4979 186.33 14.2353 187.117 15.0232C187.905 15.8112 187.555 17.387 186.417 18.5251C185.279 19.6633 183.703 19.9259 182.915 19.138C182.127 18.3501 182.477 16.7742 183.616 15.6361Z" fill="#448BC5" fill-opacity="0.12"/>
<path d="M183.704 15.6361C184.842 14.4979 186.418 14.2353 187.118 15.0232C187.819 15.8112 187.556 17.2995 186.418 18.4376C185.28 19.5757 183.704 19.8384 183.003 19.0504C182.303 18.2625 182.478 16.7742 183.704 15.6361Z" fill="#4A8DC7" fill-opacity="0.14"/>
<path d="M183.702 15.636C184.84 14.4979 186.328 14.3228 187.029 15.0232C187.729 15.8111 187.467 17.2994 186.328 18.35C185.19 19.4006 183.702 19.6632 183.002 18.9629C182.301 18.2625 182.564 16.7742 183.702 15.636Z" fill="#4E8FC8" fill-opacity="0.15"/>
<path d="M183.791 15.6353C184.842 14.5847 186.33 14.3221 187.118 15.11C187.906 15.8979 187.556 17.2987 186.418 18.3493C185.279 19.3999 183.879 19.6625 183.091 18.8746C182.303 18.0866 182.74 16.6859 183.791 15.6353Z" fill="#5391C9" fill-opacity="0.17"/>
<path d="M183.877 15.6353C184.928 14.5847 186.416 14.3221 187.117 15.11C187.817 15.8104 187.554 17.2987 186.504 18.3493C185.453 19.3999 183.965 19.6625 183.264 18.8746C182.564 18.0866 182.739 16.6859 183.877 15.6353Z" fill="#5894CA" fill-opacity="0.19"/>
<path d="M183.877 15.6358C184.927 14.6728 186.328 14.4102 187.029 15.1105C187.729 15.8109 187.466 17.2117 186.416 18.2623C185.365 19.3129 183.964 19.488 183.264 18.7876C182.564 18.0872 182.826 16.6864 183.877 15.6358Z" fill="#5D96CB" fill-opacity="0.21"/>
<path d="M183.965 15.6358C185.015 14.6728 186.328 14.4102 187.029 15.1105C187.729 15.8109 187.467 17.2117 186.416 18.1747C185.365 19.1378 184.052 19.4004 183.352 18.7C182.651 17.9996 182.914 16.6864 183.965 15.6358Z" fill="#6397CD" fill-opacity="0.23"/>
<path d="M184.053 15.6358C185.016 14.6728 186.416 14.4102 187.029 15.1105C187.73 15.8109 187.379 17.1242 186.416 18.0872C185.453 19.0502 184.14 19.3129 183.44 18.6125C182.739 17.9121 183.002 16.5989 184.053 15.6358Z" fill="#679ACF" fill-opacity="0.25"/>
<path d="M184.053 15.6357C185.017 14.6727 186.33 14.4976 186.943 15.1104C187.555 15.7233 187.293 17.0365 186.417 17.9995C185.542 18.9625 184.141 19.1376 183.441 18.5248C182.74 17.912 183.09 16.5987 184.053 15.6357Z" fill="#6D9DD1" fill-opacity="0.27"/>
<path d="M184.14 15.6352C185.103 14.7597 186.328 14.497 187.029 15.1099C187.642 15.7227 187.379 17.0359 186.504 17.9114C185.628 18.7869 184.315 19.0495 183.614 18.4367C182.914 17.8239 183.177 16.5982 184.14 15.6352Z" fill="#719FD2" fill-opacity="0.29"/>
<path d="M184.227 15.6364C185.19 14.7609 186.415 14.4983 187.028 15.1987C187.641 15.899 187.378 17.0372 186.503 17.9126C185.627 18.7881 184.314 19.0508 183.701 18.3504C183.088 17.65 183.264 16.5119 184.227 15.6364Z" fill="#76A2D2" fill-opacity="0.31"/>
<path d="M184.226 15.6365C185.102 14.761 186.328 14.5859 186.94 15.1987C187.553 15.8116 187.291 17.0373 186.415 17.9127C185.54 18.7882 184.314 18.9633 183.701 18.3505C183.088 17.7376 183.351 16.512 184.226 15.6365Z" fill="#7AA4D4" fill-opacity="0.33"/>
<path d="M184.314 15.6365C185.19 14.761 186.328 14.5859 186.941 15.1987C187.554 15.8116 187.291 16.9497 186.416 17.8252C185.54 18.7007 184.402 18.8758 183.789 18.2629C183.176 17.6501 183.439 16.512 184.314 15.6365Z" fill="#7EA6D5" fill-opacity="0.35"/>
<path d="M184.403 15.6352C185.278 14.8473 186.416 14.5846 186.942 15.1975C187.467 15.8103 187.292 16.9484 186.416 17.7364C185.541 18.5243 184.403 18.6994 183.878 18.1741C183.352 17.6488 183.527 16.5107 184.403 15.6352Z" fill="#82A9D6" fill-opacity="0.36"/>
<path d="M184.402 15.6364C185.19 14.8485 186.328 14.6734 186.853 15.1987C187.379 15.724 187.204 16.8621 186.328 17.65C185.453 18.438 184.402 18.6131 183.877 18.0878C183.352 17.5625 183.614 16.4244 184.402 15.6364Z" fill="#85ABD8" fill-opacity="0.38"/>
<path d="M184.492 15.6364C185.28 14.8485 186.33 14.6734 186.943 15.1987C187.556 15.724 187.293 16.7746 186.505 17.5625C185.718 18.3504 184.667 18.5255 184.142 18.0002C183.616 17.475 183.704 16.4244 184.492 15.6364Z" fill="#8AADD9" fill-opacity="0.4"/>
<path d="M184.578 15.6364C185.366 14.8485 186.416 14.6734 186.942 15.1987C187.467 15.724 187.292 16.7746 186.504 17.475C185.716 18.1753 184.665 18.438 184.14 17.9127C183.615 17.3874 183.79 16.4244 184.578 15.6364Z" fill="#8FB0DA" fill-opacity="0.42"/>
<path d="M184.578 15.6356C185.366 14.9352 186.329 14.7601 186.855 15.2854C187.38 15.8107 187.205 16.7737 186.417 17.4741C185.629 18.1745 184.666 18.3496 184.141 17.9119C183.615 17.4741 183.878 16.4235 184.578 15.6356Z" fill="#94B2DB" fill-opacity="0.44"/>
<path d="M184.666 15.6356C185.367 14.9352 186.33 14.7601 186.855 15.2854C187.38 15.8107 187.118 16.7737 186.417 17.4741C185.717 18.1745 184.754 18.3496 184.228 17.8243C183.703 17.299 183.966 16.4235 184.666 15.6356Z" fill="#97B5DC" fill-opacity="0.46"/>
<path d="M184.753 15.6356C185.453 14.9352 186.416 14.7601 186.854 15.2854C187.291 15.8107 187.116 16.6862 186.416 17.3866C185.716 18.0869 184.753 18.262 184.315 17.7368C183.877 17.2115 184.052 16.336 184.753 15.6356Z" fill="#9BB7DD" fill-opacity="0.48"/>
<path d="M184.84 15.6358C185.541 15.023 186.416 14.8479 186.854 15.2856C187.292 15.7234 187.117 16.6864 186.416 17.2992C185.716 17.9121 184.84 18.0872 184.403 17.6494C183.965 17.2117 184.14 16.3362 184.84 15.6358Z" fill="#9FBADE" fill-opacity="0.5"/>
<path d="M184.84 15.6358C185.453 15.023 186.328 14.8479 186.766 15.2856C187.204 15.7234 187.029 16.5989 186.416 17.2117C185.803 17.8245 184.84 17.9996 184.49 17.5619C184.14 17.1242 184.227 16.3362 184.84 15.6358Z" fill="#A3BDE1" fill-opacity="0.52"/>
<path d="M184.927 15.6358C185.539 15.023 186.415 14.8479 186.765 15.2856C187.115 15.8985 187.028 16.6864 186.415 17.1242C185.802 17.737 184.927 17.9121 184.489 17.4743C184.051 17.0366 184.314 16.3362 184.927 15.6358Z" fill="#A8BFE2" fill-opacity="0.54"/>
<path d="M185.015 15.7245C185.628 15.1116 186.416 15.0241 186.854 15.3743C187.291 15.7244 187.116 16.5999 186.504 17.2128C185.891 17.8256 185.103 17.9132 184.665 17.563C184.227 17.2128 184.402 16.2497 185.015 15.7245Z" fill="#ABC1E2" fill-opacity="0.56"/>
<path d="M185.017 15.7236C185.542 15.1983 186.33 15.0232 186.768 15.461C187.205 15.8987 187.03 16.5991 186.418 17.212C185.805 17.8248 185.017 17.9123 184.667 17.4746C184.316 17.0369 184.491 16.2489 185.017 15.7236Z" fill="#B0C4E4" fill-opacity="0.58"/>
<path d="M185.105 15.7236C185.63 15.1983 186.418 15.0232 186.768 15.461C187.118 15.8987 187.031 16.5991 186.418 17.1244C185.805 17.6497 185.105 17.8248 184.754 17.387C184.404 16.9493 184.579 16.2489 185.105 15.7236Z" fill="#B4C7E5" fill-opacity="0.6"/>
<path d="M185.191 15.7237C185.716 15.1984 186.416 15.1109 186.766 15.4611C187.117 15.9864 186.942 16.6868 186.416 17.037C185.891 17.5622 185.191 17.6498 184.84 17.2996C184.49 16.9494 184.665 16.249 185.191 15.7237Z" fill="#B7C9E7" fill-opacity="0.62"/>
<path d="M185.19 15.7229C185.715 15.2851 186.415 15.11 186.678 15.4602C186.941 15.8104 186.853 16.5108 186.415 16.9485C185.978 17.3863 185.19 17.5614 184.927 17.2112C184.664 16.861 184.752 16.1606 185.19 15.7229Z" fill="#BACBE7" fill-opacity="0.64"/>
<path d="M185.277 15.7229C185.802 15.2851 186.415 15.11 186.678 15.4602C186.94 15.8104 186.853 16.4232 186.415 16.861C185.977 17.2987 185.277 17.3863 185.014 17.1236C184.664 16.6859 184.839 15.9855 185.277 15.7229Z" fill="#BECDE9" fill-opacity="0.65"/>
<path d="M185.365 15.7239C185.803 15.2861 186.416 15.1986 186.766 15.4612C187.116 15.7239 186.941 16.3367 186.503 16.7744C186.153 17.2122 185.54 17.2997 185.102 17.0371C184.752 16.5993 184.927 15.9865 185.365 15.7239Z" fill="#C2D1E9" fill-opacity="0.67"/>
<path d="M185.365 15.7239C185.803 15.2861 186.328 15.1986 186.678 15.4612C187.028 15.7239 186.853 16.3367 186.416 16.7744C185.978 17.2122 185.453 17.2997 185.102 17.0371C184.752 16.7744 184.927 16.0741 185.365 15.7239Z" fill="#C4D3EB" fill-opacity="0.69"/>
<path d="M185.453 15.7235C185.891 15.2857 186.416 15.2857 186.679 15.5484C186.942 15.811 186.854 16.3363 186.416 16.7741C186.154 17.2118 185.628 17.2993 185.191 17.0367C184.928 16.599 185.016 16.0737 185.453 15.7235Z" fill="#C9D6ED" fill-opacity="0.71"/>
<path d="M185.539 15.7228C185.889 15.3726 186.415 15.2851 186.677 15.5477C186.94 15.8104 186.853 16.3357 186.415 16.6859C185.977 17.0361 185.539 17.1236 185.277 16.861C185.014 16.5983 185.102 16.073 185.539 15.7228Z" fill="#CCD9EE" fill-opacity="0.73"/>
<path d="M185.54 15.7228C185.89 15.3726 186.416 15.2851 186.591 15.5477C186.766 15.8104 186.766 16.2481 186.416 16.5983C186.065 16.9485 185.54 17.0361 185.365 16.7734C185.19 16.5108 185.19 16.073 185.54 15.7228Z" fill="#D0DBEF" fill-opacity="0.75"/>
<path d="M185.629 15.7228C185.979 15.3726 186.417 15.2851 186.592 15.5477C186.767 15.8104 186.679 16.2481 186.417 16.5108C186.154 16.861 185.716 16.861 185.453 16.6859C185.191 16.5108 185.278 15.9855 185.629 15.7228Z" fill="#D4DEF0" fill-opacity="0.77"/>
<path d="M185.716 15.7232C186.067 15.373 186.417 15.373 186.68 15.5481C186.942 15.7232 186.767 16.161 186.504 16.5111C186.242 16.8613 185.804 16.8613 185.541 16.6862C185.279 16.3361 185.366 15.8983 185.716 15.7232Z" fill="#D7E1F0" fill-opacity="0.79"/>
<path d="M185.715 15.7237C185.978 15.4611 186.416 15.3735 186.591 15.5486C186.766 15.7237 186.678 16.0739 186.416 16.4241C186.153 16.7743 185.715 16.7743 185.54 16.5992C185.365 16.4241 185.453 15.9864 185.715 15.7237Z" fill="#DBE2F2" fill-opacity="0.81"/>
<path d="M185.803 15.7227C186.066 15.4601 186.416 15.3725 186.591 15.6351C186.766 15.8978 186.679 16.1604 186.416 16.4231C186.154 16.6857 185.803 16.7733 185.628 16.5106C185.453 16.248 185.541 15.9853 185.803 15.7227Z" fill="#DEE6F4" fill-opacity="0.83"/>
<path d="M185.891 15.7233C186.153 15.4606 186.416 15.4606 186.591 15.6357C186.766 15.8108 186.679 16.0734 186.504 16.3361C186.328 16.5112 186.066 16.5987 185.803 16.4236C185.54 16.2485 185.628 15.9859 185.891 15.7233Z" fill="#E2E8F5" fill-opacity="0.85"/>
<path d="M185.978 15.7235C186.153 15.5484 186.503 15.4609 186.591 15.636C186.678 15.8111 186.678 16.0737 186.503 16.2488C186.328 16.4239 185.978 16.5115 185.89 16.3364C185.803 16.1613 185.715 15.8986 185.978 15.7235Z" fill="#E5EBF6" fill-opacity="0.87"/>
<path d="M185.979 15.7235C186.154 15.5484 186.417 15.4609 186.504 15.636C186.592 15.8111 186.592 15.9862 186.417 16.1613C186.242 16.3364 185.979 16.4239 185.891 16.2488C185.804 16.0737 185.804 15.8986 185.979 15.7235Z" fill="#E8EEF7" fill-opacity="0.89"/>
<path d="M186.066 15.7242C186.241 15.5491 186.416 15.5491 186.503 15.6366C186.591 15.7242 186.591 15.9868 186.416 16.0743C186.241 16.1619 186.066 16.2494 185.891 16.1619C185.891 16.0743 185.891 15.8117 186.066 15.7242Z" fill="#ECF1FA" fill-opacity="0.91"/>
<path d="M186.155 15.7229C186.242 15.6354 186.505 15.5478 186.593 15.6354C186.68 15.7229 186.68 15.898 186.505 16.0731C186.33 16.2482 186.155 16.2482 186.067 16.1607C185.98 16.0731 185.98 15.898 186.155 15.7229Z" fill="#F1F3FA" fill-opacity="0.92"/>
<path d="M186.153 15.7238C186.241 15.6362 186.416 15.6362 186.503 15.6362C186.591 15.6362 186.503 15.8989 186.416 15.9864C186.328 16.074 186.153 16.074 186.066 16.074C185.978 16.074 186.066 15.8113 186.153 15.7238Z" fill="#F4F7FD" fill-opacity="0.94"/>
<path d="M186.24 15.7234C186.327 15.6358 186.415 15.6358 186.503 15.7234C186.59 15.8109 186.503 15.8985 186.415 15.986C186.327 16.0736 186.24 16.0736 186.152 15.986C186.152 15.8985 186.152 15.8109 186.24 15.7234Z" fill="#F8F9FD" fill-opacity="0.96"/>
<path d="M186.33 15.7234C186.417 15.6358 186.505 15.6358 186.505 15.7234C186.505 15.8109 186.505 15.8985 186.417 15.8985C186.33 15.986 186.242 15.986 186.242 15.8985C186.242 15.8109 186.242 15.8109 186.33 15.7234Z" fill="#FCFDFE" fill-opacity="0.98"/>
<path d="M186.488 15.8608C186.522 15.827 186.523 15.7716 186.489 15.737C186.456 15.7023 186.4 15.7016 186.365 15.7353C186.331 15.769 186.33 15.8245 186.364 15.8591C186.398 15.8938 186.453 15.8945 186.488 15.8608Z" fill="white"/>
</g>
<path d="M185.369 12.572C188.521 9.42023 191.41 6.61869 193.949 4.34244C196.575 1.89109 199.114 1.01561 201.39 1.62844C202.178 4.34244 201.478 6.88133 199.202 9.15758C196.313 12.0467 193.336 15.0233 190.447 17.9124C188.171 15.6361 186.507 13.7976 185.369 12.572Z" fill="url(#paint0_linear_6908_2326)"/>
<path d="M193.685 6.88188C192.984 6.61923 190.796 9.15813 185.98 13.2729C186.156 13.5355 186.418 13.7106 186.593 13.8857C189.57 10.9966 191.934 8.63284 193.685 6.88188Z" fill="white"/>
<path d="M189.307 16.4251C189.307 16.3375 189.307 16.3375 189.307 16.3375H189.395C189.395 16.3375 189.395 16.3375 189.482 16.3375V16.4251C189.482 16.4251 189.482 16.4251 189.482 16.5126H189.395C189.395 16.4251 189.307 16.4251 189.307 16.4251ZM188.957 15.9873C188.957 15.8998 188.957 15.8998 188.957 15.8998C188.957 15.8998 188.957 15.8998 189.044 15.8998H189.132V15.9873V16.0749L188.957 15.9873ZM188.519 15.6371C188.519 15.5496 188.519 15.5496 188.519 15.6371V15.4621H188.607H188.694C188.694 15.4621 188.694 15.4621 188.694 15.5496V15.6371C188.694 15.6371 188.694 15.6371 188.607 15.6371C188.607 15.5496 188.519 15.5496 188.519 15.6371ZM188.169 15.1994V15.1119H188.256C188.256 15.1119 188.256 15.1119 188.344 15.1119V15.1994C188.344 15.1994 188.344 15.1994 188.344 15.287H188.256L188.169 15.1994ZM187.819 14.7617C187.819 14.6741 187.819 14.6741 187.819 14.7617C187.906 14.6741 187.906 14.6741 187.994 14.6741V14.7617C187.994 14.7617 187.994 14.7617 187.994 14.8492C187.906 14.8492 187.906 14.8492 187.819 14.7617ZM187.381 14.3239V14.2364H187.468H187.556V14.3239V14.4115L187.381 14.3239ZM187.031 13.9737L187.206 13.8862V13.9737V14.0613L187.031 13.9737ZM186.681 13.536C186.593 13.536 186.593 13.4484 186.681 13.536C186.768 13.4484 186.768 13.4484 186.856 13.4484C186.943 13.4484 186.856 13.4484 186.856 13.536V13.6235C186.856 13.6235 186.856 13.6235 186.768 13.6235C186.768 13.6235 186.681 13.536 186.681 13.536ZM186.243 13.0982C186.243 13.0107 186.243 13.0107 186.243 13.0107H186.33H186.418V13.0982V13.1858H186.33L186.243 13.0982ZM185.98 12.3979C186.068 12.3979 186.068 12.3979 186.068 12.3979C186.068 12.3979 186.068 12.3979 186.068 12.4854V12.573H185.98C185.98 12.573 185.98 12.573 185.893 12.573L185.98 12.3979ZM186.418 12.0477H186.505V12.1352C186.505 12.1352 186.505 12.1352 186.505 12.2228H186.418C186.418 12.2228 186.418 12.2228 186.33 12.2228L186.418 12.0477ZM186.768 11.6099H186.856C186.856 11.6099 186.856 11.6099 186.856 11.6975V11.785H186.768H186.681C186.768 11.6975 186.768 11.6975 186.768 11.6099ZM187.206 11.1722C187.293 11.1722 187.293 11.1722 187.206 11.1722C187.293 11.2597 187.293 11.2597 187.293 11.2597C187.293 11.2597 187.293 11.2597 187.206 11.2597H187.118L187.206 11.1722C187.118 11.2597 187.118 11.2597 187.206 11.1722ZM187.644 10.7344H187.731V10.822V10.9095H187.644C187.644 10.9095 187.644 10.9095 187.556 10.9095V10.822L187.644 10.7344ZM188.081 10.3843C188.081 10.4718 188.081 10.5594 187.994 10.5594H187.906C187.906 10.5594 187.906 10.5594 187.906 10.4718M187.906 10.4718C187.906 10.3843 187.906 10.3843 187.906 10.4718ZM188.431 9.94652C188.519 10.1216 188.519 10.0341 188.519 10.0341H188.431C188.431 10.0341 188.431 10.0341 188.344 10.0341L188.431 9.94652ZM188.782 9.59632H188.869V9.68387V9.77142H188.782H188.694L188.782 9.59632ZM189.219 9.15858H189.307C189.307 9.15858 189.307 9.15858 189.307 9.24613V9.33368H189.219H189.132C189.132 9.33368 189.132 9.24613 189.219 9.15858C189.132 9.24613 189.132 9.24613 189.219 9.15858ZM189.657 8.80839C189.745 8.80839 189.745 8.80839 189.745 8.80839V8.89594C189.745 8.89594 189.745 8.89594 189.745 8.98349C189.745 8.98349 189.745 8.98349 189.657 8.98349H189.57C189.57 8.89594 189.57 8.89594 189.657 8.80839C189.57 8.89594 189.57 8.80839 189.657 8.80839ZM190.007 8.37065H190.095C190.095 8.37065 190.095 8.37065 190.095 8.4582V8.54574C190.095 8.54574 190.095 8.54574 190.007 8.54574H189.92C190.007 8.54574 190.007 8.4582 190.007 8.37065ZM190.445 8.02046C190.533 8.02046 190.533 8.02046 190.533 8.02046V8.108C190.533 8.108 190.533 8.108 190.533 8.19555C190.533 8.19555 190.533 8.19555 190.445 8.19555H190.358L190.445 8.02046ZM190.883 7.58271H190.97H191.058C191.058 7.58271 191.058 7.58271 191.058 7.67026C191.058 7.75781 191.058 7.75781 190.97 7.75781H190.883C190.795 7.75781 190.795 7.67026 190.883 7.58271ZM191.233 7.23252H191.321C191.321 7.23252 191.321 7.23252 191.321 7.32007V7.40762C191.321 7.40762 191.321 7.40762 191.233 7.40762H191.145C191.145 7.40762 191.058 7.40762 191.058 7.32007C191.058 7.23252 191.233 7.23252 191.233 7.23252ZM191.671 6.88233H191.758V6.96988C191.758 6.96988 191.758 6.96988 191.758 7.05743H191.671H191.583C191.583 6.96988 191.583 6.96988 191.671 6.88233C191.583 6.88233 191.583 6.79478 191.671 6.88233ZM192.109 6.44459H192.196V6.53214C192.196 6.53214 192.196 6.53214 192.196 6.61968H192.109C192.109 6.61968 192.108 6.61968 192.021 6.61968C192.021 6.61968 192.021 6.61968 192.109 6.44459C192.021 6.53214 192.021 6.44459 192.109 6.44459ZM192.546 6.0944C192.634 6.0944 192.634 6.0944 192.634 6.0944C192.634 6.0944 192.634 6.0944 192.634 6.18194V6.26949H192.546C192.546 6.26949 192.546 6.26949 192.459 6.26949C192.459 6.18194 192.459 6.18194 192.546 6.0944ZM192.896 5.7442H192.984V5.83175C192.984 5.83175 192.984 5.83175 192.984 5.9193H192.896C192.896 5.9193 192.896 5.9193 192.809 5.9193C192.896 5.83175 192.896 5.83175 192.896 5.7442C192.896 5.65665 192.896 5.65665 192.896 5.7442ZM193.334 5.30646C193.422 5.39401 193.422 5.30646 193.334 5.30646C193.422 5.39401 193.422 5.39401 193.422 5.48156H193.334H193.247V5.39401C193.247 5.39401 193.247 5.39401 193.247 5.30646C193.247 5.30646 193.334 5.30646 193.334 5.30646ZM193.772 4.95627C193.859 4.95627 193.859 4.95627 193.772 4.95627C193.859 5.04382 193.859 5.04382 193.859 5.13137H193.772H193.684C193.684 5.04382 193.684 4.95627 193.772 4.95627ZM194.21 4.51853C194.21 4.60608 194.21 4.60608 194.21 4.51853C194.297 4.60608 194.297 4.60608 194.297 4.69363H194.21C194.21 4.69363 194.21 4.69363 194.122 4.69363C194.122 4.69363 194.122 4.60608 194.21 4.51853C194.122 4.60608 194.122 4.51853 194.21 4.51853ZM194.647 4.16834H194.735V4.25588C194.735 4.25588 194.735 4.25588 194.735 4.34343H194.647H194.56C194.56 4.34343 194.56 4.34343 194.647 4.16834ZM195.085 3.81814C195.173 3.81814 195.173 3.81814 195.173 3.81814C195.173 3.81814 195.173 3.81814 195.173 3.90569C195.173 3.90569 195.173 3.90569 195.173 3.99324H195.085H194.998L195.085 3.81814ZM195.523 3.46795C195.61 3.46795 195.61 3.46795 195.61 3.46795V3.5555C195.61 3.5555 195.61 3.64305 195.523 3.64305H195.435H195.348C195.348 3.64305 195.435 3.64305 195.523 3.46795C195.435 3.5555 195.435 3.5555 195.523 3.46795ZM195.961 3.11776C196.048 3.20531 196.048 3.20531 195.961 3.11776C195.961 3.20531 195.961 3.20531 195.961 3.20531C195.961 3.20531 195.961 3.20531 195.873 3.20531C195.873 3.20531 195.873 3.20531 195.873 3.11776C195.961 3.20531 195.961 3.20531 195.961 3.11776ZM196.486 2.85511H196.573V2.94266H196.486V2.85511C196.398 2.94266 196.398 2.94266 196.486 2.85511C196.398 2.85511 196.398 2.85511 196.486 2.85511ZM197.011 2.59247H197.099V2.68002C197.099 2.68002 197.099 2.68002 197.011 2.76757H196.924C196.924 2.68002 196.924 2.68002 197.011 2.59247C196.924 2.59247 196.836 2.59247 197.011 2.59247C196.924 2.59247 196.924 2.59247 197.011 2.59247ZM197.536 2.32982C197.624 2.41737 197.536 2.41737 197.536 2.41737H197.449C197.449 2.41737 197.449 2.41737 197.361 2.41737C197.361 2.41737 197.361 2.41737 197.361 2.32982C197.361 2.32982 197.361 2.32982 197.361 2.24228L197.536 2.32982ZM198.062 2.06718H198.149V2.15473C198.149 2.15473 198.149 2.15473 198.062 2.24228H197.974C197.974 2.24228 197.974 2.24228 197.974 2.15473C197.974 2.24228 197.974 2.24228 198.062 2.06718C197.974 2.15473 197.974 2.15473 198.062 2.06718ZM198.587 1.97963H198.675V2.06718C198.675 2.06718 198.675 2.06718 198.587 2.15473H198.5C198.5 2.15473 198.5 2.15473 198.412 2.06718L198.587 1.97963C198.5 1.97963 198.5 1.97963 198.587 1.97963ZM199.2 1.80454C199.2 1.89208 199.2 1.89208 199.2 1.89208H199.112C199.112 1.89208 199.112 1.89208 199.112 1.80454H199.2ZM199.725 1.80454C199.813 1.89208 199.725 1.89208 199.725 1.80454C199.725 1.89208 199.638 1.89208 199.638 1.89208C199.638 1.89208 199.638 1.89208 199.55 1.80454C199.55 1.80454 199.55 1.80454 199.638 1.80454H199.725ZM200.338 1.80454C200.426 1.80454 200.426 1.80454 200.338 1.80454C200.426 1.89208 200.426 1.89208 200.426 1.89208H200.338C200.338 1.89208 200.25 1.89208 200.338 1.80454C200.25 1.80454 200.25 1.80454 200.338 1.80454C200.25 1.80454 200.25 1.71699 200.338 1.80454ZM200.951 1.80454C201.038 1.89208 201.038 1.89208 201.038 1.89208H200.951H200.863V1.80454H200.951ZM201.389 2.50492C201.301 2.59247 201.301 2.59247 201.301 2.59247C201.301 2.59247 201.301 2.59247 201.301 2.50492V2.41737C201.214 2.41737 201.214 2.41737 201.389 2.50492ZM201.389 3.03021C201.389 3.11776 201.389 3.11776 201.389 3.03021C201.301 3.03021 201.301 3.03021 201.389 3.03021L201.476 2.94266C201.476 3.03021 201.476 3.03021 201.389 3.03021ZM201.476 3.64305C201.389 3.64305 201.389 3.64305 201.389 3.64305V3.5555V3.46795H201.476H201.564C201.476 3.46795 201.564 3.46795 201.476 3.64305ZM201.476 4.16834C201.389 4.25588 201.389 4.25588 201.389 4.25588C201.301 4.25588 201.301 4.25588 201.214 4.16834C201.214 4.16834 201.214 4.16834 201.214 4.08079H201.301H201.389C201.301 4.08079 201.389 4.08079 201.476 4.16834ZM201.389 4.78117C201.301 4.78117 201.301 4.78117 201.301 4.78117C201.301 4.78117 201.301 4.78117 201.301 4.69363H201.389V4.78117ZM201.214 5.39401C201.126 5.39401 201.126 5.30646 201.214 5.39401C201.126 5.30646 201.214 5.30646 201.214 5.21891C201.214 5.21891 201.214 5.21891 201.301 5.21891C201.301 5.30646 201.301 5.30646 201.214 5.39401ZM201.126 5.9193C201.038 5.9193 201.038 5.9193 201.038 5.9193V5.83175C201.038 5.83175 201.038 5.83175 201.126 5.9193C201.126 5.83175 201.038 5.83175 201.126 5.9193C201.126 5.83175 201.126 5.83175 201.126 5.9193Z" fill="#9C3E33"/>
<path d="M200.864 6.44428H200.689C200.689 6.44428 200.689 6.44428 200.602 6.35674V6.26919L200.689 6.18164H200.777C200.777 6.18164 200.777 6.18164 200.864 6.18164C200.864 6.26919 200.864 6.44428 200.864 6.44428ZM200.602 6.96957H200.514C200.514 6.96957 200.427 6.96957 200.427 6.88203V6.79448C200.427 6.79448 200.427 6.79448 200.514 6.79448H200.602C200.602 6.88203 200.602 6.96957 200.602 6.96957ZM200.252 7.49486C200.164 7.40731 200.164 7.40731 200.164 7.31977C200.164 7.31977 200.164 7.31977 200.252 7.31977H200.339C200.339 7.31977 200.427 7.40731 200.339 7.40731C200.339 7.49486 200.339 7.49486 200.252 7.49486ZM199.901 7.9326H199.814C199.814 7.9326 199.814 7.9326 199.726 7.84506V7.75751H199.814C199.814 7.75751 199.814 7.75751 199.901 7.75751C199.901 7.84506 199.901 7.84506 199.901 7.9326C199.989 7.9326 199.901 7.84506 199.901 7.9326ZM199.551 8.37034H199.464V8.2828V8.19525C199.464 8.19525 199.464 8.19525 199.551 8.19525H199.639L199.551 8.37034C199.639 8.37034 199.639 8.2828 199.551 8.37034ZM199.201 8.80809H199.113C199.113 8.80809 199.113 8.80809 199.113 8.72054V8.63299H199.201H199.289C199.289 8.72054 199.288 8.72054 199.201 8.80809C199.288 8.80809 199.288 8.72054 199.201 8.80809ZM198.763 9.24583C198.676 9.24583 198.676 9.24583 198.676 9.24583C198.676 9.24583 198.676 9.24583 198.676 9.15828V9.07073H198.763H198.851C198.851 9.07073 198.851 9.07073 198.763 9.24583C198.851 9.15828 198.851 9.15828 198.763 9.24583ZM198.413 9.59602H198.325V9.50847C198.325 9.50847 198.325 9.50847 198.325 9.42092H198.413C198.413 9.42092 198.413 9.42092 198.501 9.42092M197.975 10.0338H197.888C197.888 10.0338 197.888 10.0338 197.888 9.94621C197.888 9.94621 197.888 9.94621 197.888 9.85866H197.975H198.063C198.063 9.85866 198.063 9.85866 197.975 10.0338ZM197.538 10.384H197.45C197.45 10.384 197.45 10.384 197.45 10.2964V10.2089H197.538H197.625L197.538 10.384C197.625 10.384 197.625 10.384 197.538 10.384ZM197.187 10.8217C197.1 10.8217 197.1 10.8217 197.1 10.8217V10.7341C197.1 10.7341 197.1 10.7341 197.1 10.6466C197.1 10.6466 197.1 10.6466 197.187 10.6466H197.275C197.275 10.6466 197.275 10.7341 197.187 10.8217ZM196.75 11.1719H196.662H196.575V11.0843C196.575 11.0843 196.575 11.0843 196.575 10.9968H196.662C196.662 10.9968 196.662 10.9968 196.75 10.9968V11.1719ZM196.399 11.6096C196.312 11.6096 196.312 11.6096 196.399 11.6096C196.312 11.5221 196.312 11.5221 196.312 11.4345H196.399H196.487C196.487 11.5221 196.487 11.5221 196.399 11.6096ZM195.962 11.9598C195.874 12.0474 195.874 12.0474 195.962 11.9598C195.874 11.9598 195.874 11.9598 195.962 11.9598C195.962 11.8723 195.962 11.8723 195.962 11.9598C196.049 11.8723 195.962 11.8723 195.962 11.9598C196.049 11.9598 196.049 11.9598 195.962 11.9598C196.049 11.9598 195.962 12.0474 195.962 11.9598ZM195.611 12.3976H195.524H195.436V12.31V12.2225H195.524H195.611C195.611 12.2225 195.611 12.2225 195.611 12.31C195.611 12.31 195.611 12.31 195.611 12.3976ZM195.174 12.7478H195.086V12.6602C195.086 12.6602 195.086 12.6602 195.086 12.5727H195.174C195.174 12.5727 195.174 12.5727 195.261 12.5727L195.174 12.7478ZM194.824 13.1855H194.736V13.0979V13.0104H194.824C194.824 13.0104 194.824 13.0104 194.911 13.0104C194.824 13.0979 194.824 13.0979 194.824 13.1855ZM194.386 13.6232H194.298C194.298 13.6232 194.298 13.6232 194.298 13.5357V13.4481H194.386H194.473C194.386 13.4481 194.386 13.5357 194.386 13.6232C194.386 13.5357 194.386 13.5357 194.386 13.6232ZM193.948 13.9734C193.861 13.8859 193.948 13.7983 193.948 13.7983H194.036V13.8859C194.123 13.8859 194.036 13.9734 193.948 13.9734ZM193.598 14.4112H193.51C193.51 14.4112 193.51 14.4112 193.51 14.3236C193.51 14.3236 193.51 14.3236 193.51 14.2361H193.598C193.598 14.2361 193.598 14.2361 193.685 14.2361C193.598 14.2361 193.598 14.2361 193.598 14.4112ZM193.16 14.7614H193.073C193.073 14.7614 193.073 14.7614 193.073 14.6738V14.5863C193.073 14.5863 193.073 14.5863 193.16 14.5863H193.248C193.248 14.7614 193.248 14.7614 193.16 14.7614C193.248 14.7614 193.248 14.7614 193.16 14.7614ZM192.81 15.1991C192.722 15.1991 192.722 15.1991 192.722 15.1991C192.722 15.1991 192.722 15.1991 192.722 15.1116V15.024C192.722 15.024 192.722 15.024 192.81 15.024H192.897C192.897 15.1116 192.897 15.1116 192.81 15.1991ZM192.372 15.5493C192.285 15.4617 192.285 15.4617 192.285 15.4617H192.372C192.372 15.4617 192.372 15.4617 192.46 15.4617V15.5493H192.372ZM192.022 15.987H191.934C191.934 15.987 191.934 15.987 191.934 15.8995V15.8119H192.022C192.022 15.8119 192.022 15.8119 192.11 15.8119C192.022 15.8995 192.022 15.987 192.022 15.987ZM191.584 16.4248H191.497C191.497 16.4248 191.497 16.4248 191.497 16.3372V16.2497C191.497 16.2497 191.497 16.2497 191.584 16.2497H191.672C191.672 16.3372 191.672 16.3372 191.584 16.4248ZM191.147 16.8625C191.059 16.8625 191.059 16.8625 191.059 16.8625V16.775C191.059 16.775 191.059 16.775 191.059 16.6874H191.147H191.234L191.147 16.8625ZM190.796 17.2127H190.709V17.1252C190.709 17.1252 190.709 17.1252 190.709 17.0376H190.796H190.884L190.796 17.2127ZM190.096 17.2127V17.1252C190.096 17.1252 190.096 17.1252 190.183 17.1252H190.271V17.2127V17.3003L190.096 17.2127ZM189.658 16.8625C189.658 16.775 189.658 16.775 189.658 16.8625C189.658 16.775 189.658 16.775 189.658 16.775C189.658 16.775 189.658 16.775 189.746 16.775H189.833V16.8625C189.833 16.8625 189.833 16.8625 189.833 16.9501C189.833 16.8625 189.746 16.8625 189.658 16.8625Z" fill="#9C3E33"/>
<path d="M190.357 17.9134C192.021 16.25 193.772 14.499 195.523 12.748C196.398 13.0982 196.486 13.6235 195.785 14.4115C194.735 15.462 193.247 17.0379 191.233 18.964C190.795 18.4387 190.533 18.0885 190.357 17.9134Z" fill="url(#paint1_linear_6908_2326)"/>
<path d="M190.798 7.32017C190.36 6.61978 189.835 6.44469 189.309 6.96998C187.733 8.37075 186.158 9.85907 184.494 11.61C184.844 11.9602 185.107 12.3104 185.457 12.6606C187.821 10.2968 189.572 8.4583 190.798 7.32017Z" fill="url(#paint2_linear_6908_2326)"/>
<path d="M190.36 17.7383L185.457 12.573C185.37 12.4854 185.195 12.4854 185.107 12.573L184.494 13.0983L189.835 18.6138L190.36 18.001C190.447 18.001 190.447 17.9134 190.36 17.7383Z" fill="url(#paint3_linear_6908_2326)"/>
<g clip-path="url(#clip0_6908_2326)">
<path d="M5.4371 0.777832H0V25.3213H5.5069L5.4371 0.777832Z" fill="black"/>
<path d="M20.1571 25.3212L11.5093 12.1729L18.9007 0.707031H13.0379L5.64648 12.59L13.7358 25.3212H20.1571Z" fill="black"/>
<path d="M31.4493 0.707031H26.082V25.3212L31.5191 25.2505L31.4493 0.707031Z" fill="black"/>
<path d="M58.3012 0.707031H53.4155V9.8472C53.4085 10.7917 53.4551 11.7357 53.5551 12.6748L53.6946 15.1348H53.5551C53.4853 15.0005 53.1363 14.0815 52.9967 13.8694C52.7455 13.2948 52.466 12.7333 52.1591 12.187L45.8217 0.707031H40.7266L40.7964 25.2505H45.6821V13.721C45.6821 13.0848 45.5425 9.98858 45.4727 9.28876H45.6123C46.1168 10.6908 46.7209 12.054 47.42 13.3675L53.911 25.2505H58.3012V0.707031Z" fill="black"/>
<path d="M84.1734 20.6065H72.3919V14.8453H79.9228V10.3424H72.3151V5.13965H83.4057L83.3359 0.636719H67.0176V25.2509L84.1734 25.1802V20.6065Z" fill="black"/>
<path d="M89.75 5.06836H95.9618V25.1796H101.539V5.06836H107.604V0.56543L89.75 0.636119V5.06836Z" fill="black"/>
<path d="M119.799 0.565624L114.432 0.572266L114.461 25.1157L119.829 25.1091L119.799 0.565624Z" fill="black"/>
<path d="M145.126 16.7395H139.689C139.619 19.3409 138.991 21.1718 136.757 21.1718C133.826 21.1718 133.826 18.5704 133.826 17.2343V7.9528C133.774 7.46953 133.825 6.98052 133.977 6.51931C134.129 6.05809 134.377 5.63558 134.705 5.28073C135.263 4.77902 135.984 4.5023 136.73 4.50314C139.382 4.50314 139.452 7.17521 139.521 8.37693H144.889C144.819 6.40469 144.54 3.37918 142.376 1.62607C140.826 0.4946 138.946 -0.0778559 137.037 0.000210232C131.39 0.000210232 128.424 3.16711 128.424 8.794V16.1811C128.424 21.1718 129.75 22.5785 130.727 23.5611C132.263 25.0385 134.217 25.7383 137.072 25.7383C138.118 25.7383 140.631 25.5333 142.369 24.1266C143.746 23.0583 144.67 21.4986 144.951 19.765C145.114 18.7655 145.172 17.7514 145.126 16.7395V16.7395Z" fill="black"/>
<path d="M156.986 20.1893H164.517L165.703 25.0386H170.931L163.888 0.495117H157.404L150.564 25.1093H155.729L156.986 20.1893ZM160.531 4.85667H160.671L163.393 15.9691H157.956L160.531 4.85667Z" fill="black"/>
<path d="M3.00122 39.0014H0V47.7882H0.837551V44.3456H3.00122C3.35762 44.3707 3.71525 44.3195 4.05077 44.1951C4.38628 44.0708 4.69213 43.8762 4.94835 43.6241C5.20457 43.3719 5.4054 43.0678 5.53772 42.7317C5.67004 42.3956 5.73089 42.035 5.71629 41.6735C5.72549 41.3134 5.66096 40.9553 5.52675 40.6217C5.39254 40.2881 5.19158 39.9863 4.93651 39.7353C4.68144 39.4843 4.3778 39.2895 4.04472 39.1632C3.71165 39.0369 3.35635 38.9818 3.00122 39.0014V39.0014ZM2.93143 43.568H0.837551V39.772H2.93143C3.18715 39.7561 3.44336 39.7935 3.68429 39.8817C3.92521 39.97 4.14576 40.1072 4.33236 40.285C4.51896 40.4628 4.66765 40.6774 4.76929 40.9156C4.87093 41.1538 4.92336 41.4105 4.92336 41.67C4.92336 41.9294 4.87093 42.1862 4.76929 42.4244C4.66765 42.6625 4.51896 42.8771 4.33236 43.0549C4.14576 43.2327 3.92521 43.37 3.68429 43.4582C3.44336 43.5464 3.18715 43.5838 2.93143 43.568V43.568Z" fill="black"/>
<path d="M9.97375 43.7801H13.317V43.0096H9.97375V39.772H14.0149V39.0015H9.06641V47.7882H14.2941V47.0884H9.97375V43.7801Z" fill="black"/>
<path d="M21.636 43.9215C22.1412 43.7514 22.5779 43.4194 22.8802 42.9755C23.1824 42.5317 23.3337 42.0002 23.3111 41.4615C23.328 41.0063 23.211 40.5563 22.9749 40.1686C22.7388 39.7809 22.3942 39.4731 21.9849 39.2842C21.4887 39.0406 20.935 38.9427 20.3866 39.0015H17.7344V47.7882H18.5719V44.1335H20.8054L22.7527 47.8589H23.7298L21.8454 44.2749C21.7691 44.1612 21.6992 44.0432 21.636 43.9215V43.9215ZM20.7356 43.2923V43.356H18.7115V39.772H20.4564C20.8322 39.7281 21.2129 39.7766 21.5662 39.9134C21.8478 40.0565 22.0829 40.2784 22.2437 40.5528C22.4045 40.8272 22.4843 41.1426 22.4735 41.4615C22.4883 41.7016 22.4533 41.9422 22.3707 42.1677C22.2882 42.3933 22.16 42.5989 21.9944 42.7714C21.8287 42.9438 21.6293 43.0792 21.4089 43.1689C21.1885 43.2586 20.952 43.3007 20.7147 43.2923H20.7356Z" fill="black"/>
<path d="M27.1289 47.7882H27.9665V43.8508H31.1701V43.0803H27.9665V39.772H31.7285V39.0015H27.1289V47.7882Z" fill="black"/>
<path d="M38.8424 38.8599C38.2543 38.8444 37.6692 38.95 37.1226 39.1702C36.576 39.3904 36.0792 39.7207 35.6622 40.141C35.2453 40.5613 34.9169 41.0629 34.6969 41.6155C34.4769 42.168 34.3699 42.7601 34.3824 43.3557C34.3586 43.9644 34.4565 44.5717 34.6701 45.1412C34.8837 45.7106 35.2086 46.2306 35.6254 46.6697C36.0422 47.1089 36.5423 47.4583 37.0957 47.697C37.6491 47.9357 38.2444 48.0587 38.8458 48.0587C39.4473 48.0587 40.0426 47.9357 40.596 47.697C41.1494 47.4583 41.6494 47.1089 42.0663 46.6697C42.4831 46.2306 42.808 45.7106 43.0216 45.1412C43.2352 44.5717 43.3331 43.9644 43.3093 43.3557C43.3208 42.7597 43.2129 42.1675 42.9922 41.6149C42.7714 41.0623 42.4423 40.5608 42.0248 40.1406C41.6073 39.7204 41.1101 39.3903 40.5631 39.1702C40.0161 38.95 39.4307 38.8445 38.8424 38.8599ZM38.8424 47.1588C38.3592 47.1566 37.8814 47.0551 37.4381 46.8606C36.9947 46.6661 36.5949 46.3825 36.2628 46.027C35.9307 45.6715 35.6733 45.2515 35.506 44.7923C35.3388 44.3332 35.2652 43.8445 35.2897 43.3557C35.2804 42.878 35.3656 42.4032 35.5401 41.9592C35.7146 41.5152 35.9751 41.1111 36.3061 40.7706C36.6371 40.4301 37.032 40.1601 37.4675 39.9764C37.9031 39.7927 38.3706 39.6991 38.8424 39.7011C39.3166 39.6912 39.7879 39.7793 40.2275 39.9601C40.667 40.1409 41.0655 40.4106 41.3986 40.7527C41.7318 41.0947 41.9926 41.5019 42.1651 41.9495C42.3376 42.3971 42.4182 42.8756 42.4019 43.3557C42.4265 43.8451 42.3527 44.3344 42.1851 44.794C42.0174 45.2536 41.7593 45.6739 41.4265 46.0295C41.0937 46.3851 40.693 46.6686 40.2488 46.8627C39.8046 47.0568 39.3261 47.1576 38.8424 47.1588V47.1588Z" fill="black"/>
<path d="M50.7688 43.9214C51.274 43.7514 51.7108 43.4193 52.013 42.9754C52.3152 42.5316 52.4665 42.0001 52.4439 41.4614C52.4608 41.0062 52.3438 40.5562 52.1077 40.1685C51.8716 39.7809 51.527 39.473 51.1178 39.2842C50.619 39.0407 50.0631 38.9428 49.5125 39.0014H46.8672V47.7881H47.6978V44.1335H49.9312L51.8855 47.8588H52.8627L50.9502 44.2748C50.8835 44.1604 50.8229 44.0424 50.7688 43.9214V43.9214ZM49.8614 43.2923V43.3559H47.8374V39.7719H49.5543C49.9324 39.7288 50.3151 39.7772 50.6711 39.9133C50.9526 40.0564 51.1878 40.2783 51.3486 40.5527C51.5094 40.8271 51.5892 41.1425 51.5784 41.4614C51.5928 41.6979 51.5589 41.9348 51.4789 42.1574C51.3989 42.38 51.2745 42.5836 51.1134 42.7554C50.9523 42.9271 50.758 43.0635 50.5426 43.1558C50.3272 43.2482 50.0953 43.2946 49.8614 43.2923V43.2923Z" fill="black"/>
<path d="M62.9771 39.0015L60.6739 44.2042C60.5149 44.5471 60.3751 44.8988 60.2551 45.2575C60.135 44.8988 59.9952 44.5471 59.8363 44.2042L57.533 39.0015H56.6257L55.9277 47.7882H56.7653L57.3237 41.6735V40.4082C57.4652 40.8381 57.6283 41.2604 57.8122 41.6735L59.9061 46.2401H60.6739L62.7677 41.6735C62.9771 41.1787 63.2563 40.4082 63.2563 40.4082C63.2181 40.8291 63.2181 41.2526 63.2563 41.6735L63.7449 47.8589H64.5754L63.8775 39.0015H62.9771Z" fill="black"/>
<path d="M70.6481 39.0015L67.4375 47.7882H68.3448L69.322 45.0454H72.8746L73.8517 47.873H74.7591L71.5555 39.0156L70.6481 39.0015ZM69.6012 44.2749L70.7877 41.0373C70.9273 40.6839 71.1367 39.9134 71.1367 39.9134C71.1367 39.9134 71.3461 40.6203 71.4857 41.0373L72.6024 44.2749H69.6012Z" fill="black"/>
<path d="M83.8944 45.3282C83.8944 45.823 83.9642 46.5228 83.9642 46.5228C83.9642 46.5228 83.5454 45.7523 83.2663 45.3282L78.8063 39.0015H77.9688V47.7882H78.8063V41.4261C78.8063 40.9313 78.7365 40.2315 78.7365 40.2315C78.7365 40.2315 79.1553 41.002 79.4345 41.4261L83.8944 47.7882H84.732V39.0015H83.8944V45.3282Z" fill="black"/>
<path d="M92.8276 47.088C92.343 47.0929 91.8626 46.9965 91.4164 46.8048C90.9702 46.6132 90.5679 46.3304 90.2345 45.9741C89.9011 45.6179 89.6438 45.1958 89.4787 44.7343C89.3136 44.2728 89.2443 43.7818 89.275 43.292C89.2516 42.8102 89.3271 42.3288 89.4965 41.8781C89.6659 41.4273 89.9257 41.017 90.2595 40.673C90.5932 40.329 90.9937 40.0587 91.4357 39.8793C91.8777 39.6998 92.3517 39.615 92.8276 39.6302C93.7989 39.6353 94.7375 39.9855 95.4799 40.6199L95.9684 39.9837C95.0913 39.2347 93.9747 38.8351 92.8276 38.8597C92.2498 38.8408 91.6741 38.9395 91.1347 39.15C90.5952 39.3606 90.1029 39.6786 89.687 40.0853C89.2711 40.492 88.9401 40.9792 88.7134 41.5178C88.4868 42.0565 88.3692 42.6357 88.3677 43.2213C88.3409 43.8273 88.437 44.4324 88.6501 44.9994C88.8632 45.5663 89.1887 46.083 89.6067 46.5175C90.0246 46.9521 90.526 47.2953 91.08 47.5259C91.634 47.7565 92.2288 47.8697 92.8276 47.8585C94.0736 47.8723 95.2757 47.393 96.1778 46.5225L95.6893 45.8933C94.9263 46.6552 93.899 47.0841 92.8276 47.088V47.088Z" fill="black"/>
<path d="M100.492 43.7801H103.842V43.0096H100.492V39.772H104.54V39.0015H99.6543V47.7882H104.819V47.0884H100.492V43.7801Z" fill="black"/>
<path d="M116.671 39.0015L113.537 47.8589H114.465L115.436 45.0313H118.995L119.972 47.8589H120.81L117.599 39.0015H116.671ZM115.624 44.2749L116.811 41.0373C116.95 40.6839 117.16 39.9134 117.16 39.9134C117.16 39.9134 117.369 40.6203 117.508 41.0373L118.625 44.2749H115.624Z" fill="black"/>
<path d="M129.018 44.4161H130.519V45.8794C130.162 46.2708 129.731 46.5849 129.251 46.8024C128.771 47.0199 128.253 47.1364 127.727 47.1447C127.246 47.1461 126.769 47.0466 126.327 46.8524C125.886 46.6583 125.489 46.3736 125.161 46.0164C124.833 45.6592 124.582 45.2372 124.423 44.7768C124.264 44.3165 124.201 43.8279 124.237 43.3416C124.211 42.8556 124.285 42.3695 124.453 41.9135C124.621 41.4576 124.88 41.0417 125.214 40.692C125.548 40.3423 125.95 40.0662 126.395 39.8811C126.839 39.696 127.316 39.6058 127.797 39.6163C128.73 39.651 129.63 39.9714 130.379 40.5352L130.868 39.899C129.962 39.2105 128.859 38.8406 127.727 38.8458C126.558 38.8702 125.444 39.3531 124.619 40.1928C123.794 41.0325 123.323 42.1634 123.305 43.3477C123.287 44.5319 123.723 45.6771 124.522 46.5422C125.321 47.4073 126.42 47.9248 127.588 47.9859C128.12 47.9955 128.648 47.8944 129.141 47.6889C129.633 47.4834 130.078 47.1779 130.449 46.7913V47.788H131.356V43.5466H129.053L129.018 44.4161Z" fill="black"/>
<path d="M135.851 43.7801H139.201V43.0096H135.851V39.772H139.899V39.0015H135.014V47.7882H140.179V47.0884H135.851V43.7801Z" fill="black"/>
<path d="M149.524 45.3282C149.524 45.823 149.594 46.5228 149.594 46.5228C149.594 46.5228 149.175 45.7523 148.896 45.3282L144.429 39.0015H143.592V47.7882H144.429V41.4261C144.429 40.9313 144.36 40.2315 144.36 40.2315C144.36 40.2315 144.778 41.002 145.058 41.4261L149.524 47.7882H150.355V39.0015H149.524V45.3282Z" fill="black"/>
<path d="M158.437 47.088C157.953 47.0918 157.473 46.9947 157.027 46.8027C156.581 46.6107 156.179 46.3279 155.846 45.9719C155.513 45.6158 155.256 45.1942 155.09 44.7332C154.925 44.2721 154.855 43.7816 154.884 43.292C154.867 42.8118 154.947 42.3331 155.119 41.8852C155.29 41.4373 155.55 41.0295 155.883 40.6868C156.215 40.3441 156.613 40.0737 157.052 39.892C157.492 39.7103 157.963 39.6213 158.437 39.6302C159.408 39.6353 160.347 39.9855 161.089 40.6199L161.578 39.9837C160.701 39.2347 159.584 38.8351 158.437 38.8597C157.859 38.8408 157.283 38.9395 156.744 39.15C156.205 39.3606 155.712 39.6786 155.296 40.0853C154.881 40.492 154.549 40.9792 154.323 41.5178C154.096 42.0565 153.979 42.6357 153.977 43.2213C153.95 43.8273 154.046 44.4324 154.259 44.9994C154.473 45.5663 154.798 46.083 155.216 46.5175C155.634 46.9521 156.135 47.2953 156.689 47.5259C157.243 47.7565 157.838 47.8697 158.437 47.8585C159.683 47.8723 160.885 47.393 161.787 46.5225L161.299 45.8933C160.536 46.6552 159.508 47.0841 158.437 47.088V47.088Z" fill="black"/>
<path d="M170.024 38.9307L168.139 42.1612C167.86 42.656 167.581 43.2215 167.581 43.2215C167.581 43.2215 167.302 42.656 167.023 42.1612L165.145 38.9307H164.168L167.162 43.992H167.232V47.7881H168.07V43.992L171.001 38.9307H170.024Z" fill="black"/>
</g>
<defs>
<linearGradient id="paint0_linear_6908_2326" x1="206.124" y1="20.2533" x2="211.617" y2="25.8568" gradientUnits="userSpaceOnUse">
<stop stop-color="#F0900D"/>
<stop offset="0.29" stop-color="#FCC10C"/>
<stop offset="0.73" stop-color="#E85414"/>
<stop offset="1" stop-color="#F0900D"/>
</linearGradient>
<linearGradient id="paint1_linear_6908_2326" x1="207.352" y1="29.7288" x2="208.166" y2="30.5441" gradientUnits="userSpaceOnUse">
<stop stop-color="#E85414"/>
<stop offset="0.32" stop-color="#ED7A10"/>
<stop offset="1" stop-color="#D41B26"/>
</linearGradient>
<linearGradient id="paint2_linear_6908_2326" x1="200.72" y1="23.6107" x2="201.929" y2="24.9184" gradientUnits="userSpaceOnUse">
<stop stop-color="#F6AC4E"/>
<stop offset="0.51" stop-color="#F6B45B"/>
<stop offset="1" stop-color="#E85414"/>
</linearGradient>
<linearGradient id="paint3_linear_6908_2326" x1="186.709" y1="16.3884" x2="187.51" y2="15.615" gradientUnits="userSpaceOnUse">
<stop stop-color="#626467"/>
<stop offset="0.25" stop-color="#1E1E1F"/>
<stop offset="1" stop-color="#626467"/>
</linearGradient>
<clipPath id="clip0_6908_2326">
<rect width="171" height="60" fill="white"/>
</clipPath>
</defs>
</svg>
